<svg xmlns="http://www.w3.org/2000/svg" viewBox="0 0 500 500"><g id="freepik--Floor--inject-132"><ellipse id="freepik--floor--inject-132" cx="247.01" cy="406.24" rx="208.33" ry="78.6" style="fill:#f0f0f0"></ellipse></g><g id="freepik--Graphics--inject-132"><g id="freepik--Skull--inject-132"><path d="M31.22,359.36a2.27,2.27,0,0,1,1.51-.53A5.78,5.78,0,0,0,37,357.16l22.51-22.6a3.41,3.41,0,0,0,.69-3.31v0a2.59,2.59,0,0,1,1.86-3.37,2.53,2.53,0,0,1,2.36,1.22,2,2,0,0,0,1.88.95,2.3,2.3,0,0,1,2.13.87,3,3,0,0,1-.09,4.11,2.19,2.19,0,0,1-1.33.55,8.19,8.19,0,0,0-5.36,2.3L40.15,359.44a4,4,0,0,0-.83,3.81v0a2.56,2.56,0,0,1-1.92,3.33,2.52,2.52,0,0,1-2.34-1.25,2,2,0,0,0-1.86-1,2.32,2.32,0,0,1-2.13-.9A3,3,0,0,1,31.22,359.36Z" style="fill:#f0f0f0"></path><path d="M52.42,319c-.94-1.95.21-3.49-2.55-9.25S39.38,300.34,29.56,305s-11.78,13-9,18.79,4.66,5.83,5.6,7.79-1.3,4.44,1.29,6.59,4.28-.27,6.07,0,2.74,1.29,4,3.82c0,0,3.42,1.62,9.27-1.18s6.74-6.49,6.74-6.49c-1.21-2.53-1.42-3.9-.51-5.47s3.87-1.37,3.81-4.74S53.35,321,52.42,319ZM32.3,333.2c-2.79,0-4.39-2.87-4.4-4.51s1.43-3.15,3.48-3.83c3.2-1.07,6.11.88,6,3.49S34.23,333.22,32.3,333.2Zm13.94.54c-.46.71-1.94.86-3.13-.42.25,1.73-.8,2.79-1.63,2.7s-1.07-.93-1.09-2.46A27.11,27.11,0,0,1,41,329a28.18,28.18,0,0,1,4,2.34C46.18,332.33,46.69,333,46.24,333.74Zm3.56-8.92c-1.2,1.52-4.92,2.53-7,.95s-1.78-5.07,1.06-6.89c1.82-1.18,3.92-1.36,5.17-.32S51.53,322.63,49.8,324.82Z" style="fill:#f0f0f0"></path><path d="M70.86,340.38a2.2,2.2,0,0,0-1.36.84,5.78,5.78,0,0,1-4,2.27l-31.71,3.38a3.41,3.41,0,0,1-3-1.54h0a2.59,2.59,0,0,0-3.8-.66,2.5,2.5,0,0,0-.52,2.6,2,2,0,0,1-.44,2.06,2.29,2.29,0,0,0-.66,2.2A3,3,0,0,0,28.62,354a2.22,2.22,0,0,0,1.26-.69A8.21,8.21,0,0,1,35,350.61l30.29-3.23a4,4,0,0,1,3.49,1.74v0a2.58,2.58,0,0,0,3.8.6,2.52,2.52,0,0,0,.49-2.62,2,2,0,0,1,.41-2.06,2.34,2.34,0,0,0,.63-2.23A3,3,0,0,0,70.86,340.38Z" style="fill:#f0f0f0"></path></g><g id="freepik--Lightning--inject-132"><polygon points="53.81 239.2 57.58 265.48 66.08 265.98 62.44 280.51 69.94 280.12 68.97 298.08 80.37 271.58 72.04 272.28 79.48 254.54 67.66 254.28 73.54 237.7 53.81 239.2" style="fill:#f0f0f0"></polygon><polygon points="43.89 294.82 51.98 290.55 64.45 303.5 54.43 280.68 47.68 283.67 39.78 266.13 28.26 275.76 43.89 294.82" style="fill:#e6e6e6"></polygon></g><g id="freepik--lightning--inject-132"><polygon points="421.41 244.83 416.29 270.87 407.77 270.94 410.66 285.64 403.19 284.86 403.23 302.84 393.21 275.79 401.5 276.92 394.98 258.82 406.8 259.17 401.78 242.31 421.41 244.83" style="fill:#f0f0f0"></polygon><polygon points="428.44 300.88 420.59 296.2 407.46 308.5 418.65 286.22 425.24 289.55 434.03 272.44 445.04 282.65 428.44 300.88" style="fill:#e6e6e6"></polygon></g><g id="freepik--Lungs--inject-132"><path d="M451.37,372.9c-7,0-6.45-6.69-13-11.55-6-4.46-4.89-11.18,1.93-21.17,3.68-5.4,6.23-11.82,9.07-16.36a1.75,1.75,0,0,0,.16.27,18,18,0,0,0,3.16,3.41,12.87,12.87,0,0,1,.49,2.56,6.14,6.14,0,0,1-1.31,3.5,64.14,64.14,0,0,1-4.78,6.58c-2.87,3.34-6.47,8.43-3.66,12.86.07.12.32-.1.27-.22-2.2-4.94,2.05-9,5.3-12.77a14.45,14.45,0,0,0-.32,2.45,17.22,17.22,0,0,0,1.3,6.78,1.89,1.89,0,0,0,.09.21c0,.37,0,.74,0,1.09a5.94,5.94,0,0,1-.41,1.76c-.56,1.4-1.71,2.48-2.47,3.76-1.13,1.87-2.35,4.9-.94,6.95.07.12.25-.1.23-.18a6.6,6.6,0,0,1,.1-3.58,12.07,12.07,0,0,1,2.24-3.61,10.93,10.93,0,0,0,2.13-3.41l.12-.39c.53,1.22,1.1,2.42,1.64,3.63,1.09,2.5.5,5.65-.61,8-.06.14.11.12.18,0a12,12,0,0,0,2.08-6.19c.09-2.05-.9-4-1.74-5.78.61.5,1.27.93,1.92,1.39,1.58,1.08,3.26,2.3,3.44,4.37,0,.19.29,0,.3-.13a6.77,6.77,0,0,0-2.46-4.85c-.91-.84-1.92-1.58-2.84-2.43a8.55,8.55,0,0,1-1.88-2.18,17.87,17.87,0,0,1-.85-3.68,13.6,13.6,0,0,1,0-3.77,18,18,0,0,1,.84-3c1.23-1.73,2.75-3.58,3.17-5.69a10.77,10.77,0,0,0,.16-2.33l.24.27c1.49,1.86,1.72,4.25,1.84,6.55-.05.24-.09.5-.15.74-.09.42-.17.85-.27,1.26-.22.88-.63,1.68-.77,2.58a4.75,4.75,0,0,0,.5,2.91c.19.35.37.71.59,1s.41.62.73.71a.15.15,0,0,0,.17-.16c-.09-.39-.35-.77-.47-1.17s-.2-.72-.29-1.09a3.94,3.94,0,0,1-.2-1.59,5.38,5.38,0,0,1,.31-1c.07-.18.14-.36.23-.54a6.39,6.39,0,0,0,1.06,1.73,6.3,6.3,0,0,0,1.38,1.2s.09-.13.1-.18a.15.15,0,0,0-.08-.12,2.78,2.78,0,0,1-.29-.41,8.17,8.17,0,0,1-.48-.93,8.65,8.65,0,0,1-.56-2,18.17,18.17,0,0,1-.19-3.76c.07-2.54.15-4.82-1.3-7-1.32-2-3.38-3.29-4.82-5.17a9.26,9.26,0,0,1-.93-1.46c2.17-2.82,4.63-4.38,7.93-3.55,8.49,2.14,7.44,18.45,5.41,30.35S458.31,372.89,451.37,372.9Z" style="fill:#f0f0f0"></path><path d="M397.89,344.25c3.84,5.79,9.14,1.66,16.79,4.39,7,2.5,12-2.13,16.56-13.34,2.45-6.05,6.39-11.73,8.59-16.61l-.3,0a18,18,0,0,1-4.59-.74,12.64,12.64,0,0,0-2.41,1,6.22,6.22,0,0,0-2.18,3,64.71,64.71,0,0,0-2.84,7.63c-1.18,4.24-3.43,10.05-8.67,10.17-.14,0-.1-.32,0-.34,5.34-.91,6.4-6.72,7.7-11.49a14.57,14.57,0,0,1-1.86,1.62,17,17,0,0,1-6.36,2.67l-.23.05c-.3.2-.63.38-.91.59a5.94,5.94,0,0,0-1.24,1.31c-.86,1.25-1.12,2.8-1.76,4.15-.94,2-2.78,4.66-5.27,4.63-.13,0-.05-.27,0-.3a6.63,6.63,0,0,0,2.92-2.06,12.23,12.23,0,0,0,1.76-3.87,10.87,10.87,0,0,1,1.67-3.66l.25-.31c-1.31.23-2.62.42-3.93.64-2.68.48-5,2.71-6.35,4.95-.08.13-.16,0-.13-.11a12.05,12.05,0,0,1,4-5.17c1.66-1.22,3.78-1.44,5.78-1.76-.76-.23-1.48-.54-2.22-.83-1.78-.71-3.72-1.43-5.55-.44-.16.09-.15-.24-.05-.32a6.76,6.76,0,0,1,5.39-.64c1.22.3,2.38.72,3.6,1a8.42,8.42,0,0,0,2.86.36,18.3,18.3,0,0,0,3.53-1.33,13.34,13.34,0,0,0,3.13-2.11,17.87,17.87,0,0,0,2-2.34c.76-2,1.46-4.27,3-5.79a11.36,11.36,0,0,1,1.85-1.43l-.36-.05c-2.37-.2-4.49.93-6.47,2.11-.17.17-.36.35-.53.53s-.61.61-.9.92c-.61.67-1.06,1.45-1.72,2.07a4.78,4.78,0,0,1-2.71,1.19,11.71,11.71,0,0,1-1.18.09,1.63,1.63,0,0,1-1-.22.14.14,0,0,1,0-.22c.39-.14.84-.14,1.24-.26s.72-.23,1.07-.36a4,4,0,0,0,1.44-.72,4.8,4.8,0,0,0,.62-.79,4.2,4.2,0,0,0,.33-.49,6.65,6.65,0,0,1-2,.08,6.78,6.78,0,0,1-1.76-.49s.06-.15.1-.18a.14.14,0,0,1,.14,0,2.92,2.92,0,0,0,.51,0,7.2,7.2,0,0,0,1-.11,9,9,0,0,0,1.95-.62,19.11,19.11,0,0,0,3.23-1.92c2.08-1.46,3.94-2.8,6.58-2.81,2.39,0,4.61,1,7,1.15a10,10,0,0,0,1.73,0c1.15-3.37,1.08-6.28-1.43-8.57-6.49-5.88-19.49,4-28.27,12.31S394.06,338.46,397.89,344.25Z" style="fill:#f0f0f0"></path><path d="M450.66,313.44l3.89-7.27-2.86-1.53-3.9,7.26c-2.36,4.41-5.12,4.54-7,4.51l-.94,2.28s3.83,1.11,6.76-1.1c-.22,3.66,2.82,6.23,2.82,6.23l1.39-2C449.72,320.22,448.29,317.85,450.66,313.44Z" style="fill:#f0f0f0"></path></g></g><g id="freepik--Character--inject-132"><g id="freepik--Chartacter--inject-132"><g id="freepik--Bottom--inject-132"><path d="M148.08,369.36,146,349.78l22.42,1.47s-.35,10.63-.66,16.64c-.18,3.56,4.61,10.16,4.61,10.16s-10.53,5.65-16.17,3.67-8.63-9-8.55-10.52S148.08,369.36,148.08,369.36Z" style="fill:#ffa8a7"></path><path d="M202.06,399.94c.36,0,.95,3.63-.95,5.22-2.18,1.82-8.65,4.87-17.26,4s-13.32-3.31-16.8-5.94-8.37-6.36-12.27-7.09c-3.63-.69-7.58-2.15-8.75-3.18s-1.09-5.67-1.09-5.67Z" style="fill:#263238"></path><path d="M148.08,369.32a1.36,1.36,0,0,0-1.28,1.11c-.25,1.28-.47,5-1,7.12-.74,2.94-1.17,8.93-.66,11.3s6.43,3.93,10.22,5.21a48.25,48.25,0,0,1,12.31,7c4.09,3,12.64,6.14,18.25,6,6.63-.16,14.06-2.3,15.73-5.2,2.06-3.6,3.53-7.76-6.37-11.86-1.88-.77-8.47-4.28-10.72-5.55-6.09-3.45-10.38-6.64-13.26-12.87a3.5,3.5,0,0,0-1.44-1.9,3.37,3.37,0,0,0-1.92-.13c-1.63.24-8.15,1.2-9.63,1.89-1.31.61-3.18,1.33-3.12,2.91a5,5,0,0,0,.4,1.6c.12.32.22.75-.08.94s-.66,0-.92-.22a24.11,24.11,0,0,1-2.7-2.93,10,10,0,0,0-1.58-1.46,16.46,16.46,0,0,1-1.7-1C148,370.75,148.12,370.06,148.08,369.32Z" style="fill:#455a64"></path><path d="M167.66,401.06a65.3,65.3,0,0,0-5.43-3.66h0s11.67,6.38,16.3,3.32c3-2,1.51-4.29,1.42-5s10.46-6.2,13.38-6.58h0c.82.41,1.51.74,1.94.91,9.9,4.1,8.43,8.26,6.37,11.86-1.67,2.9-7,5.24-15.61,5.39C180.42,407.35,171.75,404.1,167.66,401.06Z" style="fill:#37474f"></path><path d="M179.11,393.51c6.15,2.19,3.56,3.3,1.85,3.56s-12.09-5.19-18.44-9.73c-6.63-4.74-10.84-10-13.3-11.7-.92-.65-1.91-1.45-2.79-2.2.14-1.26.25-2.41.37-3a1.36,1.36,0,0,1,1.28-1.11c0,.74-.09,1.43.52,2a16.46,16.46,0,0,0,1.7,1,10,10,0,0,1,1.58,1.46,24.11,24.11,0,0,0,2.7,2.93C160,382.93,173,391.33,179.11,393.51Z" style="fill:#37474f"></path><path d="M180.51,396.23a.59.59,0,0,1-.38-.12.54.54,0,0,1-.1-.79c1.69-2,9.8-6.84,14.3-6.46a.57.57,0,1,1-.11,1.13c-4.21-.35-11.9,4.44-13.24,6A.61.61,0,0,1,180.51,396.23Z" style="fill:#263238"></path><path d="M175.13,393.25a.62.62,0,0,1-.39-.12.53.53,0,0,1-.09-.79c1.69-2,9.79-6.84,14.3-6.45a.57.57,0,0,1,.55.61.59.59,0,0,1-.66.51c-4.21-.34-11.9,4.44-13.25,6A.57.57,0,0,1,175.13,393.25Z" style="fill:#263238"></path><path d="M169.75,390.44a.63.63,0,0,1-.39-.13.54.54,0,0,1-.1-.79c1.7-2,9.8-6.84,14.31-6.45a.56.56,0,0,1,.54.61.6.6,0,0,1-.65.52c-4.21-.35-11.91,4.43-13.25,6A.63.63,0,0,1,169.75,390.44Z" style="fill:#263238"></path><path d="M164.75,387.2a.66.66,0,0,1-.38-.12.54.54,0,0,1-.1-.8c1.69-2,9.81-6.84,14.3-6.45a.58.58,0,0,1,.55.61.61.61,0,0,1-.66.52c-4.21-.35-11.9,4.43-13.24,6A.65.65,0,0,1,164.75,387.2Z" style="fill:#263238"></path><path d="M159.85,384a.63.63,0,0,1-.37-.12.54.54,0,0,1-.12-.79c2.33-2.85,10.83-6.91,15.34-6.53a.57.57,0,0,1,.54.62.59.59,0,0,1-.65.51c-4.06-.34-12.2,3.56-14.27,6.09A.64.64,0,0,1,159.85,384Z" style="fill:#263238"></path><path d="M103.77,380l5.11-18.55L86.07,358l-1,17.95s-2.43,6.41-1,8.77,16.56,5,18,3.5S103.77,380,103.77,380Z" style="fill:#ffa8a7"></path><path d="M101.42,420.48c-.74,5.75-2,9.46-4.53,12.54s-7,3.56-11.34,2-9.88-5-10.83-10.22-.48-8.57.86-13.81Z" style="fill:#263238"></path><path d="M85.05,375.9c-1.84-.12-1.48,7.78-3,15.43-1.65,8.2-4.68,11.27-6.12,18-1.64,7.67-1.4,11.23,1.4,16.38S90.75,437,96.57,431c4.74-4.92,5.31-11,5.4-18.9.09-8.13.08-13.87.84-19.95.72-5.81,2.49-11,1-11.84-.18.85-.37,1.92-.55,2.75-.14.64-.52,3.78-1.55,3.68a11.77,11.77,0,0,1,.12-2.22,2.47,2.47,0,0,0-.38-2A8.49,8.49,0,0,0,98.47,381c-1.77-.56-5-1.27-6.77-1.66q-1.35-.3-2.73-.48a7.92,7.92,0,0,0-2.33,0,1.4,1.4,0,0,0-1,.66,2.18,2.18,0,0,0-.16.88,5.37,5.37,0,0,1-.33,1.58c-.08.22-.27.47-.53.38a.49.49,0,0,1-.27-.51c.05-.95.23-1.61.35-2.71,0-.5.19-1.18.23-1.69S85,376.4,85.05,375.9Z" style="fill:#455a64"></path><path d="M76.47,407.15c-.25,1.1-1.8,8.43.41,10.09,2.39,1.8,4.12-3.89,4.12-3.89s5.93-.79,14.2,3.66c-.51,1.15.54,5.33,2.92,4.8s3.82-9,3.84-9.08c-.12,7.54-.79,13.44-5.39,18.22-5.82,6-16.47-.09-19.26-5.25s-3-8.71-1.4-16.38C76.08,408.55,76.26,407.83,76.47,407.15Z" style="fill:#37474f"></path><path d="M81.64,413.94c-.22,2.83-3.31,1.44-3.19-2.57s3.17-13.16,3.58-20c.66-9.44,1.18-15.55,3-15.43a2.85,2.85,0,0,0,0,.29l-.49,3.93a14.82,14.82,0,0,0-.21,1.68c-.41,5.76-.64,17-1.53,22.18A80.55,80.55,0,0,0,81.64,413.94Z" style="fill:#37474f"></path><path d="M94.22,416.8a79.7,79.7,0,0,0,2.36-9.69c1-5.15,4.19-15.43,5.79-21a12.45,12.45,0,0,0,.84-3.14c.17-.77.35-1.75.51-2.57l0-.17c1.11.65.66,5.11,0,7.42s-1.39,4.78-2.18,8.09c-2,6.52-2.3,16.34-3.58,20.09S93.45,419.5,94.22,416.8Z" style="fill:#37474f"></path><path d="M95.36,417.26l-.24-.09a24.94,24.94,0,0,0-14-3.22.75.75,0,0,1-.8-.54.56.56,0,0,1,.53-.67,26.21,26.21,0,0,1,14.95,3.45.6.6,0,0,1,.23.85A.67.67,0,0,1,95.36,417.26Z" style="fill:#263238"></path><path d="M97.27,411.33a1,1,0,0,1-.22-.09,31.11,31.11,0,0,0-15.65-3.59.74.74,0,0,1-.78-.56.55.55,0,0,1,.55-.65,32.12,32.12,0,0,1,16.53,3.8.6.6,0,0,1,.27.84A.65.65,0,0,1,97.27,411.33Z" style="fill:#263238"></path><path d="M82.21,401.88a.73.73,0,0,1-.55-.48.55.55,0,0,1,.47-.71c8.34-1.34,16.19,3.45,16.52,3.66a.6.6,0,0,1,.24.85.71.71,0,0,1-.93.13c-.08-.05-7.71-4.7-15.46-3.44A.93.93,0,0,1,82.21,401.88Z" style="fill:#263238"></path><path d="M83,396.44a.74.74,0,0,1-.54-.47.54.54,0,0,1,.46-.71c9.18-1.64,16.55,3.44,16.85,3.66a.58.58,0,0,1,.18.85.71.71,0,0,1-.94.08c-.07-.05-7.16-4.92-15.71-3.4A.76.76,0,0,1,83,396.44Z" style="fill:#263238"></path><path d="M84,390.34a.74.74,0,0,1-.54-.47.54.54,0,0,1,.44-.72c8.61-1.65,16.63,3.62,17,3.85a.59.59,0,0,1,.2.85.7.7,0,0,1-.94.09c-.08-.05-7.83-5.13-15.83-3.6A.76.76,0,0,1,84,390.34Z" style="fill:#263238"></path><path d="M99,184.13C94.71,229.62,92.73,292,92.73,292c-.37,3.46-2.86,9.34-4.78,26.38-2,18-2.09,43.39-2.09,43.39s12,6.94,22,3.72c0,0,9.94-39.8,15.41-60.93,5.17-20,12.47-50.45,12.47-50.45l5.4,30.29s-.91,13-.7,22.07c.26,10.57,6.17,51.12,6.17,51.12s11.79,7.92,22.25,0c0,0,3.11-59.27,3.62-72,1-24.93.82-73.3.5-105.51Z" style="fill:#BA68C8"></path><path d="M99,184.13C94.71,229.62,92.73,292,92.73,292c-.37,3.46-2.86,9.34-4.78,26.38-2,18-2.09,43.39-2.09,43.39s12,6.94,22,3.72c0,0,9.94-39.8,15.41-60.93,5.17-20,12.47-50.45,12.47-50.45l5.4,30.29s-.91,13-.7,22.07c.26,10.57,6.17,51.12,6.17,51.12s11.79,7.92,22.25,0c0,0,3.11-59.27,3.62-72,1-24.93.82-73.3.5-105.51Z" style="opacity:0.30000000000000004"></path><path d="M135.7,254.07l5.68-32.33s12.07-1.58,18.35-7.15c0,0-4.12,7.45-15.53,10.19l-5.6,29.41,2.5,30.17Z" style="opacity:0.2"></path><path d="M85.58,362.23c2.43,3.43,13.44,7,22.4,4.08l1.66-7c-6.76,2.06-18.4-.21-23.81-4.72Z" style="fill:#BA68C8"></path><path d="M146.5,358.61c3,2.95,14.15,4.57,22.47.09l.47-7.17c-6.31,3.23-17.83,3.21-23.92-.28Z" style="fill:#BA68C8"></path></g><g id="freepik--Top--inject-132"><g id="freepik--Arm--inject-132"><path d="M232.68,153.62c6.38,5.41,8.57,6.9,9.06,9.76s1.11,8.45.47,10.1-2.13,4.42-4.82,1.68-6.38-5.92-9.8-6.19C225.33,163.37,232.68,153.62,232.68,153.62Z" style="fill:#f28f8f"></path><path d="M211.31,154.24c-8.71-.77-25.92-1.53-25.92-1.53l-10.74,18.62c8.21.63,17.93-1.23,24.44-2,7.69-.93,10.22-1.61,12.09-1,2.32,1,6.85,4.67,10.77,5.14,2.85.35,5.08-1.5,7.32-.77C229.85,171.13,224.47,158.13,211.31,154.24Z" style="fill:#ffa8a7"></path><path d="M185.27,152.53s-6.71-32.74-9-39.93-3.6-15.24-15.39-18.74l-6.36,19.81s9.07,37.3,11.1,47.6c2.23,11.35,4.87,10.69,15.35,10.38.47-6.18,3.65-13.4,8.91-18.92Z" style="fill:#37474f"></path></g><path id="freepik--Chest--inject-132" d="M119.71,90c-4.58.95-10.4,2.13-16.24,3.75s-9.73,2.66-15,5.59c0,0,.09,22.25,4.44,42.46,1,4.65,4.39,17.49,5,27.34.79,13.29.34,19.23-.82,30.71,0,0,15.16,11.25,47.57,8.81,25.45-1.91,28.75-11.28,28.75-11.28s-.46-42.42-1.12-61.18c-.87-24.65-5.89-38.08-11.38-42.38l-19.15-3.58Z" style="fill:#455a64"></path><g id="freepik--Head--inject-132"><path d="M113.62,39.33s-3.8.29-6.29,5.08c-1.26,2.41-2.15,6.8,1.27,19.36a50.72,50.72,0,0,0,6,13.85,6.21,6.21,0,0,0,3.61,2.88L118,70.85l-.36-6.73s5.42-4.92,5.89-9.75c.6-6.22-1.83-9.74-1.83-9.74Z" style="fill:#37474f"></path><path d="M112.3,39.65c1-5.42,7.82-11.89,21.1-12.6,10.87-.58,17.23,3.16,21,9.5s1.29,14.55,1.29,14.55l-34.17-2.23Z" style="fill:#37474f"></path><path d="M109.18,73.67c5,2.43,7.28-1.52,7.28-1.52l.75,19.9c9.6,12.84,35.22,8.2,24.71-1.42l0-4.54a30.65,30.65,0,0,0,4.33-.42c4.42-.7,7.2-4.22,8.52-9,1.95-7.1,2.71-18.45,0-30.52-.51-2.34-1.52-4.88-3.66-5.94-5.31-2.62-10.23,1.16-17.63,4-3.07,1.19-10.5,1.72-12.46.8,2.58,2.85,2.56,11.86-1.24,15.51a8.52,8.52,0,0,1-1.91,2.49c-1.62,1.4-3-2.23-4.31-3.65a5.57,5.57,0,0,0-8.67,2A9.08,9.08,0,0,0,109.18,73.67Z" style="fill:#ffa8a7"></path><path d="M141.9,86.09c-5.81,0-11-.75-14.39-2.2s-6.47-6.08-7.46-10.68c0,3.7,1.62,10.27,6.82,13s11.24,2.88,15,3Z" style="fill:#f28f8f"></path><path d="M134.89,52.81l-5.29.6a2.8,2.8,0,0,1,2.42-3A2.6,2.6,0,0,1,134.89,52.81Z" style="fill:#37474f"></path><path d="M151.9,51.53l-5-2a2.59,2.59,0,0,1,3.4-1.56A2.84,2.84,0,0,1,151.9,51.53Z" style="fill:#37474f"></path><path d="M130.53,57.82a2.17,2.17,0,1,0,2.09-2.25A2.17,2.17,0,0,0,130.53,57.82Z" style="fill:#263238"></path><path d="M147.72,56.93a2.17,2.17,0,1,0,2.09-2.25A2,2,0,0,0,147.72,56.93Z" style="fill:#263238"></path><path d="M139.32,53.43l1.79,13.81,7.3-2.69A32.29,32.29,0,0,0,139.32,53.43Z" style="fill:#f28f8f"></path><path d="M135.58,70.32l5.64,1.87a2.91,2.91,0,0,1-3.7,2A3.11,3.11,0,0,1,135.58,70.32Z" style="fill:#b16668"></path><path d="M136.17,71.34a3.49,3.49,0,0,0-.71-.07,3,3,0,0,0,2.06,2.91,2.55,2.55,0,0,0,.94.13A2.72,2.72,0,0,0,136.17,71.34Z" style="fill:#f28f8f"></path></g><g id="freepik--arm-with-scissors--inject-132"><path d="M202.85,209.34a99.56,99.56,0,0,1-13.12-3.66,7.18,7.18,0,0,1-4-3.16c-2.83-5.51-11.1-10.61-22.7-13.21-17.81-4-36.73-.58-42.25,7.63a8.35,8.35,0,0,0-1.52,4.76c0,1.2,0,5.94,0,7.12,0,7,9.29,14.1,23.76,17.35,16,3.59,33,1.18,40.21-5.33a5.71,5.71,0,0,0,.53-.55c1.28-1.44,4.3-2,6.84-1.37l7.28,1.85,5-4.3Zm-73.45-4c4.22-5.07,17.8-7,30.37-4.18A40.8,40.8,0,0,1,171,205.38a17,17,0,0,1,5.53,4.71c-4.22,5.07-17.81,7-30.38,4.18a40.41,40.41,0,0,1-11.25-4.18A17,17,0,0,1,129.4,205.38Z" style="fill:#BA68C8"></path><path d="M189.73,205.68a7.18,7.18,0,0,1-4-3.16c-2.83-5.51-11.1-10.61-22.7-13.21-17.81-4-36.73-.58-42.25,7.63S125.17,215.05,143,219c16,3.6,33,1.18,40.21-5.33a5.71,5.71,0,0,0,.53-.55c1.28-1.44,4.3-2,6.84-1.36l7.28,1.85,5-4.31A99.56,99.56,0,0,1,189.73,205.68ZM177,209.55c-3.69,5.48-17.78,7.64-30.79,4.72a40.41,40.41,0,0,1-11.25-4.18c-6-3.47-8.29-7.8-5.94-11.3,3.68-5.47,17.78-7.63,30.78-4.71A40.48,40.48,0,0,1,171,198.25C177,201.72,179.32,206.06,177,209.55Z" style="fill:#fff;opacity:0.2"></path><path d="M197.84,213.65l-7.28-1.86c-2.55-.68-5.55-.07-6.84,1.38-.2.21-.38.4-.53.54C176,220.22,159,222.63,143,219c-14.34-3.21-23.58-10.24-23.77-17.16v6.94c0,7,9.3,14.1,23.77,17.35,16,3.6,33,1.18,40.21-5.33.15-.14.33-.33.53-.55,1.29-1.45,4.29-2,6.84-1.36l7.28,1.84,5-4.3v-7.13Z" style="fill:#BA68C8"></path><path d="M159.77,201.2A40.68,40.68,0,0,1,171,205.38a17,17,0,0,1,5.53,4.71,4,4,0,0,0,.4-.54c2.36-3.49.08-7.83-5.93-11.29a40.36,40.36,0,0,0-11.26-4.18c-13-2.92-27.09-.76-30.78,4.71-1.36,2-1.16,4.33.42,6.59C133.63,200.3,147.21,198.39,159.77,201.2Z" style="opacity:0.2"></path><polygon points="197.84 213.65 197.84 220.78 202.85 216.47 202.85 209.34 197.84 213.65" style="opacity:0.2"></polygon><path d="M366.52,265.78c0-1.83,0-5,0-5-.1-5.58-7.21-11.05-27.68-19s-71.31-23.37-108.21-31.94c-6.64,3-16.8,2.93-27.77.53l-5,4.3v5S330.74,258.25,366.52,265.78Z" style="fill:#263238"></path><path d="M202.85,210.41c11,2.4,21.13,2.46,27.77-.53,36.9,8.57,87.75,24,108.21,31.94s27.58,13.39,27.68,19c-35.77-7.53-168.67-46.08-168.67-46.08Z" style="fill:#37474f"></path><path d="M242,175c0-3.86-2-8.25-6.4-13-11.23-12-32.18-18.65-47.27-17.38-12,1-17.12,5.42-17.14,11.22,0,1.22,0,6,0,7.15,0,5.52,4.55,12.29,12.15,18.61a69.92,69.92,0,0,0,21.55,12.23,20.52,20.52,0,0,1,6.89,3.74l9.55,8.42,7.47-2.93V196l-.37-.37.52-.18.06,0c8.18-2.54,13-7.25,13-13.26Zm-17.19,8.78c-6,1.86-15.7-.44-25.34-6a64.91,64.91,0,0,1-8.86-6.17c-4.76-4-8.09-8.1-9.62-11.67l0,0c.8-1.07,2.57-2.54,8.6-3.05,8.34-.7,19.84,2.24,28.63,7.31a40.93,40.93,0,0,1,9.56,7.43,22.3,22.3,0,0,1,4.57,6.77C231.18,180.74,228.6,182.6,224.82,183.77Z" style="fill:#BA68C8"></path><polygon points="221.34 198.9 221.34 206.03 228.81 203.1 228.81 195.97 221.34 198.9" style="opacity:0.2"></polygon><path d="M229,188.27s-.05,0-.07,0c-3.24,1-4.5,3.29-2.66,5.14l2.15,2.16c.17-.06.34-.13.52-.18l.07,0c8.17-2.54,13-7.24,13-13.26V175C242,181,237.19,185.74,229,188.27Z" style="opacity:0.2"></path><path d="M181,159.9c.81-1.07,2.57-2.55,8.6-3.05,8.33-.7,19.84,2.24,28.63,7.31a40.93,40.93,0,0,1,9.56,7.43,22.39,22.39,0,0,1,4.57,6.76,5.79,5.79,0,0,0,.45-1.13c1.11-3.63-.62-8.05-5-12.75a41,41,0,0,0-9.56-7.44c-8.8-5.08-20.3-8-28.64-7.3-6,.5-7.79,2-8.59,3-1.32,1.75-1.25,4.27,0,7.15Z" style="opacity:0.2"></path><path d="M183.34,174.51a69.65,69.65,0,0,0,21.56,12.23,20.62,20.62,0,0,1,6.89,3.74l9.55,8.42,7.47-2.93-2.53-2.54c-1.83-1.84-.57-4.14,2.68-5.14l.06,0c13.43-4.17,17.82-14.19,6.59-26.23s-32.18-18.65-47.27-17.38C164.9,146.63,167.74,161.53,183.34,174.51Zm6.28-24.79C198,149,209.46,152,218.25,157a41.47,41.47,0,0,1,9.56,7.43c4.39,4.71,6.13,9.13,5,12.77-.89,2.92-3.66,5.19-8,6.54-6,1.86-15.7-.44-25.34-6a64.91,64.91,0,0,1-8.86-6.17c-8.6-7.16-12.55-14.91-9.6-18.83C181.82,151.7,183.58,150.23,189.62,149.72Z" style="fill:#fff;opacity:0.2"></path><path d="M324.45,288.72c-15.79-18.93-89.19-86.06-95.63-91.94l-7.37,2.89v5a19.66,19.66,0,0,1,4.27,7.33,8.46,8.46,0,0,1-2.44,3.68v5c18.41,20.35,50.07,48,65.74,59s25.8,14.52,35.42,14Z" style="fill:#263238"></path><path d="M221.45,199.67c5.23,6.07,6.33,11.9,1.83,16,18.42,20.35,50.08,48,65.74,59s25.8,14.53,35.43,14c-15.79-18.93-89.19-86.06-95.63-91.94Z" style="fill:#455a64"></path><path d="M243.57,218.07a2.2,2.2,0,0,0-1.3-1.79,6.93,6.93,0,0,0-6.27,0,2.2,2.2,0,0,0-1.3,1.81v1.76a2.19,2.19,0,0,0,1.3,1.81,6.93,6.93,0,0,0,6.27,0,2.16,2.16,0,0,0,1.3-1.82C243.57,219.18,243.58,218.73,243.57,218.07Z" style="fill:#e0e0e0"></path><path d="M236,219.9a6.93,6.93,0,0,0,6.27,0c1.74-1,1.74-2.62,0-3.62a6.93,6.93,0,0,0-6.27,0C234.27,217.28,234.27,218.9,236,219.9Z" style="fill:#f5f5f5"></path><path d="M96.11,97c-9.52,1.69-16.18,6.43-19.28,18.11-3.17,11.94-14.79,39.1-15.9,48.28-1.06,8.81-2.3,10.34,4.19,15.79C72,185,88.35,198.82,94,203.79a214.08,214.08,0,0,1,16.11,15.82c.53.57,1.07,1.13,1.65,1.65a12.87,12.87,0,0,0,2.16,1.58,4.23,4.23,0,0,0,2.67.56,4.72,4.72,0,0,0,2.76.92,10,10,0,0,1,1.7-.26,5.69,5.69,0,0,1,1.28.37l.29.08a5.18,5.18,0,0,0,3.34-.28,1,1,0,0,1,.3-.08l.08,0a.36.36,0,0,1,.36,0c.34.12.7.22,1.05.32a10.94,10.94,0,0,0,3.46.4,4.7,4.7,0,0,0,2.05-.57,2,2,0,0,0,.52-.43s.25-.37.2-.39a36.85,36.85,0,0,1-7.61-4.38c-2.83-3.22-5.78-7.85-5.52-8.84s1.72-1.45,7.81-.19,9.1-2.52,7.35-3.16a60.31,60.31,0,0,1-8.61-4.43c-7-4.65-15.81-4.06-20.46-9.55-3.68-4.33-22.35-27-22.35-27l13.7-33S106.48,106.48,96.11,97Z" style="fill:#ffa8a7"></path><path d="M96.76,95.75c-5.92,1.4-15,3-19.06,13.64-3.39,8.86-10.79,30.27-14.51,40.55-5.36,14.81-5.38,19.5-4.85,22.05s6,7.37,12.9,12.37c4.09-9.14,13.23-13.51,16.69-14.48l-3.12-4.07L98.3,134S107.48,106.47,96.76,95.75Z" style="fill:#37474f"></path><path id="freepik--Thumb--inject-132" d="M236,160.12c-.42-.9-1.69-4.75-2.73-6.71-.91-1.72-4.2-3.2-5.31-3.59-.49-.18-3.3,0-9,.79a71.28,71.28,0,0,1,7.24,3.86,20.86,20.86,0,0,0,4.83,6C233,162.11,236.83,161.83,236,160.12Z" style="fill:#ffa8a7"></path></g></g></g></g><g id="freepik--Cigarette--inject-132"><g id="freepik--cigarette--inject-132"><path d="M341.11,307.44c9.08-5.25,23.8-5.25,32.88,0,4.54,2.62,6.81,6.05,6.81,9.49l.06,98.37c0,3.44-2.27,6.87-6.81,9.49-9.08,5.25-23.8,5.25-32.88,0-4.54-2.63-6.81-6.06-6.81-9.5l-.06-98.37C334.3,313.49,336.57,310.06,341.11,307.44Z" style="fill:#BA68C8"></path><path d="M341.11,307.44c9.08-5.25,23.8-5.25,32.88,0,4.54,2.62,6.81,6.05,6.81,9.49l.06,98.37c0,3.44-2.27,6.87-6.81,9.49-9.08,5.25-23.8,5.25-32.88,0-4.54-2.63-6.81-6.06-6.81-9.5l-.06-98.37C334.3,313.49,336.57,310.06,341.11,307.44Z" style="fill:#fff;opacity:0.30000000000000004"></path><g style="opacity:0.30000000000000004"><path d="M349.6,401.89l0,.07a1.27,1.27,0,0,1-.29,1.84l-.13.06-.21.06h-.15l-.34,0-.15,0-.19-.1-.13-.09-.05-.06a1.47,1.47,0,0,1-.21-1.56l.14-.19.27-.21.22-.08.48,0,.24,0,.29.15Z" style="fill:#fff"></path><path d="M353.71,347.71a1.74,1.74,0,0,1-.79.7l-.27.1-.14,0h-.2l-.14,0-.31-.12-.12-.08-.16-.13-.09-.11a1.44,1.44,0,0,1-.17-1.21,1.43,1.43,0,0,1,.25-.43l0-.13v-.17l.09-.44.05-.12a1.07,1.07,0,0,1,.36-.46l.16-.07.24-.06h.17l.43.08.12,0a1.15,1.15,0,0,1,.48.39l.08.15,0,.24V346l-.08.43,0,.12,0,.06h0l.07.15.09.35v.17l0,.23Z" style="fill:#fff"></path><path d="M351.14,329.09l-.14.19-.11.1-.19.12-.15.06-.36.06H350l-.22-.05-.14-.07-.28-.19-.1-.11-.12-.18-.06-.14-.07-.34v-.16l0-.21.05-.14a1.18,1.18,0,0,1,.76-.56,1.2,1.2,0,0,1,.94.21l.21.18.08.12.08.18,0,.13,0,.33v.14l-.05.2Z" style="fill:#fff"></path><path d="M375.34,350.17l-.13.18-.12.11-.19.12-.15.06-.36.06h-.15l-.23-.06-.14-.06-.27-.2-.11-.1-.12-.18-.05-.14-.08-.34v-.16l0-.21.05-.14a1.15,1.15,0,0,1,1.7-.35,1.68,1.68,0,0,1,.21.18l.08.12.08.18,0,.13,0,.33,0,.14-.05.2Z" style="fill:#fff"></path><path d="M353.77,322.92l-.09.14-.16.17-.13.1-.33.14-.15,0h-.22l-.16,0-.34-.12-.14-.07-.17-.15-.1-.12a1.27,1.27,0,0,1,.6-1.84l.1,0,.16,0h.24l.16,0,.33.15.12.08.16.16.09.13.15.32,0,.16v.23l0,.17Z" style="fill:#fff"></path><path d="M374.52,421.63l-.08.14-.17.17-.13.09-.32.15-.16,0-.22,0-.15,0-.35-.11-.13-.08-.18-.14-.1-.12a1.31,1.31,0,0,1-.12-1.08,1.29,1.29,0,0,1,.72-.76l.1,0,.16,0h.24l.16,0,.33.14.13.09.16.16.09.12.14.33,0,.16v.23l0,.16Z" style="fill:#fff"></path><path d="M348.66,415.07l-.09.14-.16.17-.13.1-.33.14-.15,0h-.22l-.16,0-.34-.11-.14-.08-.17-.14-.1-.12a1.34,1.34,0,0,1-.12-1.09,1.27,1.27,0,0,1,.72-.75l.1,0,.16,0h.24l.16,0,.33.14.12.09.16.15.09.13.15.32,0,.16v.24l0,.16Z" style="fill:#fff"></path><path d="M351.39,357l-.11.21-.1.12-.28.24-.11.06-.16.07-.12,0a1.39,1.39,0,0,1-1,0,1.14,1.14,0,0,1-.67-1.15l.06-.19.13-.23.13-.14.33-.24.13-.06.17-.05,0,.09.11-.12a1.34,1.34,0,0,1,.86.07,1.14,1.14,0,0,1,.64,1.17Z" style="fill:#fff"></path><path d="M361.53,377a1.31,1.31,0,0,1,.71-.66,1.07,1.07,0,0,1,.84,0l.22.24.05.15.1.07.16.15.08.13.14.32,0,.08a1.05,1.05,0,0,1,0,.58l-.09.2-.2.23-.18.13-.44.16-.17,0h-.25l-.17-.05a1.47,1.47,0,0,1-.52-.4A1.08,1.08,0,0,1,361.53,377Z" style="fill:#fff"></path><path d="M362.24,384.66a1.16,1.16,0,0,1-.58-.83v-.14l0-.2,0-.13.16-.3L362,383l.15-.14.11-.08.22-.09.15,0h.22l.15,0,.38.12.09,0a1.25,1.25,0,0,1,.4.32l.09.2,0,.31,0,.22-.18.44-.09.14-.17.17-.14.09A1.28,1.28,0,0,1,362.24,384.66Z" style="fill:#fff"></path><path d="M365.05,418.83l.15.08.18.15.11.13.18.33.05.16,0,.24,0,.17a1.33,1.33,0,0,1-.71.88l-.08,0-.13,0h-.45l-.13,0-.09,0a1.17,1.17,0,0,1-.58-1.46A1.19,1.19,0,0,1,365.05,418.83Z" style="fill:#fff"></path><path d="M346.7,370.47l-.05-.25V370l.11-.46.06-.14a1.17,1.17,0,0,1,.62-.56l.1,0,.16,0,.23,0,.16,0,.31.14.12.09.15.15.08.12.15.32,0,.17v.23l0,.16-.13.36-.09.14-.16.17-.13.09-.21.1-.15,0-.22,0-.15,0-.37-.11-.07,0a1.17,1.17,0,0,1-.46-.38Z" style="fill:#fff"></path><path d="M359,412.53a1.51,1.51,0,0,1-.63,1.38l-.15.06L358,414l-.16,0-.36,0-.15-.05-.2-.1-.1-.08-.16-.1a2,2,0,0,1-.76-.75l-.05-.15-.05-.21v-.16a1.48,1.48,0,0,1,.69-1.21,1.36,1.36,0,0,1,1.27,0A1.72,1.72,0,0,1,359,412.53Z" style="fill:#fff"></path><path d="M350.39,420.79l-.18.12-.14.06-.34.08h-.27a2.36,2.36,0,0,1,0,.28,1.61,1.61,0,0,1-.73,1.11l-.22.06h-.33l-.23-.07-.4-.26-.15-.17-.14-.3,0-.23a2.58,2.58,0,0,0-.06-.48,2.68,2.68,0,0,1,.09-1.66l.14-.17.25-.18.21-.08.46,0,.22,0,.24.11.12-.08.26-.08h.2l.4.06.11,0h0a1.12,1.12,0,0,1,.65.36,1.1,1.1,0,0,1,0,1.41Z" style="fill:#fff"></path><path d="M352.81,383.94l-.08.28-.12.17-.21.21-.18.1-.18.05a1.17,1.17,0,0,1-1.06,0,1.15,1.15,0,0,1-.29-.18l-.07-.07-.1-.12,0-.09-.1-.22,0-.09,0-.14v-.1a1.19,1.19,0,0,1,.56-.94,1.47,1.47,0,0,1,1.32-.05,1.12,1.12,0,0,1,.65.82v.25Z" style="fill:#fff"></path><path d="M338.76,408.91l.32-.08h.35l.14,0,.21.1.12.09.16.15.09.13.15.37,0,.09a1.15,1.15,0,0,1,0,.52l-.09.2-.2.23-.18.13-.45.16-.17,0H339l-.16-.05a1.26,1.26,0,0,1-.74-.84,1.18,1.18,0,0,1,.24-1l.11-.09.16-.11Z" style="fill:#fff"></path><path d="M338.87,341.05a1.16,1.16,0,0,1,1.37-.71l.16.09.2.16.11.14,0,.07h0a1.14,1.14,0,0,1,.3,1L341,342l-.15.21-.14.11-.41.23-.15.05a1.31,1.31,0,0,1-.79-.08l-.14-.08-.13-.12-.15-.2-.07-.16-.08-.36v-.15l0-.22Z" style="fill:#fff"></path><path d="M334.5,315.32l.13-.06.21,0H335l.16,0h.22l.15,0,.28.13.12.08.14.13.08.11a1.19,1.19,0,0,1-.57,1.7,1.54,1.54,0,0,1-.28.09h-.16l-.23,0-.16-.05-.31-.17-.12-.1,0,0v-.17a7.85,7.85,0,0,1,.18-1.6Z" style="fill:#fff"></path><path d="M341.47,332.48l0,.31,0,.21-.16.44-.1.15-.18.17-.14.1a1.56,1.56,0,0,1-.65.13,1.08,1.08,0,0,1-1.24-.63,1.26,1.26,0,0,1,0-1,1.09,1.09,0,0,1,.56-.61h.33l.14.05.12,0h.22l.15,0,.34.1.08,0a1.18,1.18,0,0,1,.46.36Z" style="fill:#fff"></path><path d="M338.27,344.21l.08.06.1.11.06.08.15.24.06.2v.29l0,.2-.08.17a1.17,1.17,0,0,1-.67.82,1.06,1.06,0,0,1-.33.1h-.25l-.11,0-.22-.07-.09,0-.13-.08-.07-.06a1.15,1.15,0,0,1-.34-1,1.44,1.44,0,0,1,.83-1A1.09,1.09,0,0,1,338.27,344.21Z" style="fill:#fff"></path><path d="M345.42,416l-.31.24-.27.1h-.52l-.26-.09-.29-.24-.13-.17-.07-.14c-.43-.74-.41-1.33.07-1.77l.1-.07.15-.08.12,0,.28-.05h.12l.17,0,.12,0a1.79,1.79,0,0,1,.87,2Z" style="fill:#fff"></path><path d="M355.83,401.91a1.1,1.1,0,0,1,.87.42l.08.13.07.19,0,.14V403l0,0v.4l0,.17-.09.23-.1.15a1.41,1.41,0,0,1-1.56.29l-.22-.18-.18-.29,0,0-.18-.19,0-.5.05-.22.15-.28.27.15-.22-.23.13.12-.12-.13.17.17.08.09h0l-.23-.33A1.28,1.28,0,0,1,355.83,401.91Z" style="fill:#fff"></path><path d="M356.65,408.79l-.1.21-.09.14-.18.16-.14.09-.35.13-.16,0h-.24l-.16,0-.32-.15-.13-.09-.16-.16-.08-.13-.14-.34,0-.15v-.23l0-.16a1.23,1.23,0,0,1,.67-.72,1.27,1.27,0,0,1,1,0,1.65,1.65,0,0,1,.25.15l.1.1.12.17.06.13.1.33v.37Z" style="fill:#fff"></path><path d="M345.26,388.8a1.28,1.28,0,0,1-1.12,0,1.22,1.22,0,0,1-.6-.82v-.14l0-.21,0-.13.15-.3.08-.12L344,387l.12-.08.21-.09.15,0h.22l.15,0,.33.1.09,0a1.34,1.34,0,0,1,.45.34l.09.2.05.3,0,.22-.17.44-.09.15-.17.17Z" style="fill:#fff"></path><path d="M352.35,334.79l-.13-.13a1.9,1.9,0,0,1-.58-.84l0-.15v-.21l0-.15a1.39,1.39,0,0,1,.87-1,1.29,1.29,0,0,1,1.2.2,1.67,1.67,0,0,1,.71,1.46,1.43,1.43,0,0,1-.84,1.18l-.15,0-.21,0-.16,0-.33-.1-.13-.07-.17-.14Z" style="fill:#fff"></path><path d="M343,359.46l-.1-.29,0-.22.09-.45.1-.2.17-.19,0-.14v-.27l.05-.19.17-.36.06-.1h0v0a1.12,1.12,0,0,1,.53-.51,1.07,1.07,0,0,1,1.34.4l.07.13.06.2,0,.15,0,.35,0,.12,0,.14a1.15,1.15,0,0,1,.25.12,1.56,1.56,0,0,1,.85,1v.23l-.1.31-.13.2-.36.3-.21.1-.32.05-.23,0a2.37,2.37,0,0,0-.48-.08,2.66,2.66,0,0,1-1.55-.57Z" style="fill:#fff"></path><path d="M338.57,407.31l.16-.21.13-.12.43-.22.14-.05a1.3,1.3,0,0,1,.83.11l.09.05.13.1.14.19.08.15.09.33V408l0,.14-.15.32-.09.14-.18.16-.14.08-.35.13-.16,0h-.24l-.16,0-.21-.09-.13-.09-.15-.16-.09-.12-.15-.36,0-.07a1.15,1.15,0,0,1,0-.59Z" style="fill:#fff"></path><path d="M379.44,342.84l-.06-.32v-.22l.15-.46.1-.16.18-.19.15-.09a1.37,1.37,0,0,1,.84-.09v2.1a1.3,1.3,0,0,1-1.26-.37Z" style="fill:#fff"></path><path d="M362.34,358.44a1.72,1.72,0,0,1,1.68.13,1.5,1.5,0,0,1,.62,1.38l0,.15-.1.2-.09.13-.27.24-.13.09-.22.08-.11,0-.19.05a2,2,0,0,1-1.06.09l-.14-.06-.19-.11-.12-.1a1.4,1.4,0,0,1-.45-1.31A1.34,1.34,0,0,1,362.34,358.44Z" style="fill:#fff"></path><path d="M378.34,316.19a1.2,1.2,0,0,1,.54.92,1.11,1.11,0,0,1-.38.88l-.12.08-.17.07-.14,0-.31,0h-.14l-.19-.06-.13-.06,0,0a1.25,1.25,0,0,1-.49-1.41l.11-.19.23-.2.19-.1.45-.1h.18l.25.06Z" style="fill:#fff"></path><path d="M375.94,331.26l.21.18.11.16a1.29,1.29,0,0,1-.65,1.69,1.47,1.47,0,0,1-1.13,0,1.36,1.36,0,0,1-.76-.78l0-.16v-.23l0-.16.15-.35.08-.12.16-.16.13-.09a1.51,1.51,0,0,1,.64-.14l.28-.06h.19l.41.11Z" style="fill:#fff"></path><path d="M380.06,380.41l-.14.32-.1.14-.17.16-.14.09-.36.13-.16,0h-.24l-.16,0-.32-.15-.13-.09-.15-.16-.09-.13-.14-.34,0-.15V380l0-.15a1.26,1.26,0,0,1,1.78-.76l.09.05.13.1.16.18.08.14.11.35,0,.15,0,.22Z" style="fill:#fff"></path><path d="M334.3,321.52l0,0,.18-.08.13,0h.45l.19.06.12.06.18.13.11.1.11.18.06.14.08.37v.09a1,1,0,0,1-.07.49l-.12.17-.24.19-.19.08-.45.07h-.16l-.22-.05-.15-.07-.06-.05Z" style="fill:#fff"></path><path d="M336.42,396.4l-.25-.21L336,396a2.28,2.28,0,0,0-.25-.42,2.65,2.65,0,0,1-.59-1.55l.06-.21.15-.27.16-.15.39-.23.22-.06h.26l.08-.11.21-.19.17-.09.39-.11.11,0h0l0,0a1.2,1.2,0,0,1,.74.07,1.08,1.08,0,0,1,.58,1.28l-.05.13-.12.18-.1.11-.28.22-.11.06-.13.05a2.76,2.76,0,0,1,.08.27,1.64,1.64,0,0,1-.21,1.31l-.18.14-.3.13-.24,0-.47-.06Z" style="fill:#fff"></path><path d="M372.17,408.78l-.19.14-.14.08-.36.1h-.3l-.12,0a1.41,1.41,0,0,1-.89-.43,1.17,1.17,0,0,1-.12-1.34l.12-.14.22-.16.17-.08.41-.07h.14l.17,0V407l.15-.07a1.41,1.41,0,0,1,.75.42,1.13,1.13,0,0,1,.11,1.33Z" style="fill:#fff"></path><path d="M376.58,420.09l-.19-.25-.22,0-.33-.39v-.05l-.17-.09a1.07,1.07,0,0,1,1-1.7l.17.06.22.12.13.12.1.14.08,0,.17.1.3.32.1.17.08.27v.2A1.2,1.2,0,0,1,376.58,420.09Z" style="fill:#fff"></path><path d="M341,376.09l-.24-.1-.23-.45,0-.22,0-.31.31,0-.3-.12.17.06-.16-.07.22.09.11,0h0l-.34-.22a1.28,1.28,0,0,1,.67-.83,1.1,1.1,0,0,1,1,0l.12.08.14.14.08.12.08.15,0,0,.17.36,0,.17v.25l0,.17a1.42,1.42,0,0,1-1.31.9l-.27-.07-.28-.19Z" style="fill:#fff"></path><path d="M377.36,397.57l-.32-.51.08-.33.06-.15.12-.18.07,0-.05-.07a1.28,1.28,0,0,1,.55-.44.88.88,0,0,1,.26-.09l.14,0,.2,0,.13,0,.3.13.21.56-.24.57-.38.14,0,.12-.51.31Z" style="fill:#fff"></path><path d="M359.34,397.43a2,2,0,0,1-.25-.13l-.11-.09-.12-.16-.07-.13-.12-.31,0-.14v-.21l0-.14a1.48,1.48,0,0,1,.8-.93,1.41,1.41,0,0,1,.49-.09L360,395l.13-.11.39-.22.12-.05a1.25,1.25,0,0,1,.59,0l.16.07.2.15.12.13.22.38,0,.11a1.1,1.1,0,0,1,0,.62l-.07.16-.14.2-.13.11-.38.22-.11,0-.07,0h0l-.07.15-.21.3-.11.12-.2.13-.15.06A1.7,1.7,0,0,1,359.34,397.43Z" style="fill:#fff"></path><path d="M362.35,415.8l-.19.21-.18.12-.27.1-.21,0-.19,0a1.16,1.16,0,0,1-1-.41.92.92,0,0,1-.19-.28l0-.1,0-.15v-.34l0-.1,0-.14,0-.09A1.16,1.16,0,0,1,361,414a1.49,1.49,0,0,1,1.23.5,1.08,1.08,0,0,1,.25,1l0,.09-.07.13Z" style="fill:#fff"></path><path d="M363.62,347.22a1.14,1.14,0,0,1,1.7-.34l.21.18.08.11.08.18,0,.14,0,.33,0,.14-.05.2-.06.13-.13.18-.12.11-.19.12-.15.06-.36.06h-.15l-.22-.05-.15-.07-.27-.19-.11-.11-.12-.18-.05-.14-.07-.34v-.15l0-.22Z" style="fill:#fff"></path><path d="M365.94,424.48l.05.16.05.44v.12a1.25,1.25,0,0,1-.23.58l-.13.12-.22.12-.16.05-.44.05h-.19v0l-.12.1-.32.2-.15.05-.23,0h-.17a1.69,1.69,0,0,1-.91-.56,1.28,1.28,0,0,1-.17-.22l-.06-.13,0-.2,0-.14,0-.34,0-.14.08-.19.08-.12a1.47,1.47,0,0,1,1.11-.51,1.36,1.36,0,0,1,.49.12l.12-.07.16-.05.45,0h.13a1.28,1.28,0,0,1,.55.22l.12.13Z" style="fill:#fff"></path><path d="M358.87,338.8l.13.1.15.17.08.14.1.35,0,.16,0,.23-.05.15a1.26,1.26,0,0,1-.83.71h-.29l-.26-.05-.08,0-.12-.05-.07-.05a1.11,1.11,0,0,1-.29-1.47A1.13,1.13,0,0,1,358.87,338.8Z" style="fill:#fff"></path><path d="M372.5,371.57h-.22l-.16,0-.34-.12-.14-.07-.17-.15-.1-.12a1.18,1.18,0,0,1-.1-1,1.2,1.2,0,0,1,.68-.73,1.07,1.07,0,0,1,.27-.09h.14l.21,0,.14,0,.31.14.12.09.15.15.08.13.1.21,0,.16v.24l0,.16-.14.35-.08.14-.16.17-.14.1-.32.14Z" style="fill:#fff"></path><path d="M374.21,359.79l0,.07-.19.21-.06.06-.11.08-.08,0a1.15,1.15,0,0,1-1.47-.52,1.18,1.18,0,0,1,.47-1.57l.16-.06.23,0h.17l.37.08.15.07.19.14.12.12a1.38,1.38,0,0,1,.19,1.12l0,.08Z" style="fill:#fff"></path><path d="M375.09,413.87l0,.15v.44a1.14,1.14,0,0,1-.2.55l-.17.14-.27.13-.22,0-.47,0-.17-.05-.22-.12-.14-.11a1.57,1.57,0,0,1-.31-.59,1.07,1.07,0,0,1,.24-1.38,1.3,1.3,0,0,1,.93-.31,1.12,1.12,0,0,1,.75.36l.11.31v.16l.06.1Z" style="fill:#fff"></path><path d="M359.78,361.76l.19.13a.59.59,0,0,0,.15.15l.1.06.16.11a2,2,0,0,1,.69.86l0,.25-.07.35-.14.22-.36.32-.24.1-.35,0-.25-.06-.2-.11-.07,0a4.12,4.12,0,0,1-.45-.27,1.49,1.49,0,0,1-.68-1.52l.1-.21.22-.24.2-.12.45-.11h.22Z" style="fill:#fff"></path><path d="M368.82,390.83l-.23.12-.17.05-.47,0h-.16a1.31,1.31,0,0,1-.68-.4l-.1-.13-.07-.16-.05-.24v-.18l.08-.36.06-.14.11-.19.14-.14a1.14,1.14,0,0,1,1.54-.08l.11.14.12.23,0,.18v.07l0,0a1.13,1.13,0,0,1-.16,1.07Z" style="fill:#fff"></path><path d="M367.74,336.67a1.06,1.06,0,0,1,1.07-.24l.14.09.19.15.1.14.07.15.07,0,.14.13.22.35.07.18,0,.27,0,.19a1.14,1.14,0,0,1-1.57.64l-.14-.26-.21-.06-.24-.43,0-.05-.15-.11A1.1,1.1,0,0,1,367.74,336.67Z" style="fill:#fff"></path></g><path d="M341.11,290c9.08-5.24,23.8-5.24,32.88,0,4.54,2.62,6.81,6.06,6.81,9.49l.06,19.77c0,3.44-2.27,6.88-6.81,9.5-9.08,5.24-23.8,5.24-32.88,0-4.54-2.62-6.81-6.06-6.81-9.5l-.06-19.77C334.3,296.1,336.57,292.66,341.11,290Z" style="fill:#f0f0f0"></path><path d="M341.11,290.66c9.08-5.25,23.8-5.25,32.88,0,4.54,2.62,6.81,6,6.81,9.49l.06,6.71c0,3.44-2.27,6.87-6.81,9.49-9.08,5.24-23.8,5.24-32.88,0-4.54-2.62-6.81-6.05-6.81-9.49l-.06-6.71C334.3,296.71,336.57,293.28,341.11,290.66Z" style="fill:#BA68C8"></path><path d="M375.47,315.45c-.45.31-.92.61-1.42.9a29.49,29.49,0,0,1-9.41,3.3V287.37a29.61,29.61,0,0,1,9.35,3.29c.52.3,1,.62,1.48.94Z" style="fill:#fff;opacity:0.30000000000000004"></path><path d="M341.11,136.57c9.08-5.25,23.8-5.25,32.88,0,4.54,2.62,6.81,6.05,6.81,9.49l.06,154.08c0,3.44-2.27,6.87-6.81,9.49-9.08,5.24-23.8,5.24-32.88,0-4.54-2.62-6.81-6.05-6.81-9.49l-.06-154.08C334.3,142.62,336.57,139.19,341.11,136.57Z" style="fill:#f0f0f0"></path><g id="freepik--skull--inject-132"><path d="M370.86,296a1.39,1.39,0,0,0-1,.11,3.61,3.61,0,0,1-2.86.2l-18.88-6.69a2.12,2.12,0,0,1-1.29-1.68v0a1.63,1.63,0,0,0-2-1.4,1.6,1.6,0,0,0-1,1.33,1.25,1.25,0,0,1-.8,1.05,1.46,1.46,0,0,0-1,1.07,1.9,1.9,0,0,0,1.17,2.3,1.32,1.32,0,0,0,.9-.05,5.19,5.19,0,0,1,3.66-.15l18,6.39a2.51,2.51,0,0,1,1.5,1.94h0a1.62,1.62,0,0,0,2,1.37,1.59,1.59,0,0,0,1-1.35,1.27,1.27,0,0,1,.79-1.06,1.44,1.44,0,0,0,1-1.09A1.89,1.89,0,0,0,370.86,296Z" style="fill:#37474f"></path><path d="M346.85,283c.88,1.93,2.5,1,3.44,1.65s1.2,1.48,1.2,3.24c0,0,1.5,1.84,5.58,1.84s5.57-1.84,5.57-1.84c0-1.76.26-2.6,1.2-3.24s2.56.28,3.43-1.65-1.06-2.72-1.06-4.08,1.06-1.92,1.06-5.93-3.38-8.19-10.2-8.19-10.22,4.18-10.22,8.19,1.07,4.57,1.07,5.93S346,281,346.85,283Zm12.09-2.87c-.75-1.46.37-3.35,2.47-3.62a2.83,2.83,0,0,1,3,1.23,3,3,0,0,1-1.27,3.75A3.64,3.64,0,0,1,358.94,280.08Zm-3.48,3.76a17.5,17.5,0,0,1,1.61-2.41,17.75,17.75,0,0,1,1.6,2.41c.4.86.5,1.41.05,1.68s-1.33,0-1.65-1.09c-.33,1.05-1.21,1.37-1.66,1.09S355.06,284.7,355.46,283.84Zm-5.76-6.15a2.83,2.83,0,0,1,3-1.23c2.1.27,3.22,2.16,2.47,3.62a3.65,3.65,0,0,1-4.22,1.36A3,3,0,0,1,349.7,277.69Z" style="fill:#37474f"></path><path d="M343.27,296a1.36,1.36,0,0,1,1,.11,3.64,3.64,0,0,0,2.87.2L366,289.58a2.12,2.12,0,0,0,1.29-1.68v0a1.63,1.63,0,0,1,2-1.4,1.6,1.6,0,0,1,1,1.33,1.23,1.23,0,0,0,.8,1.05,1.46,1.46,0,0,1,1,1.07,1.9,1.9,0,0,1-1.17,2.3,1.32,1.32,0,0,1-.9-.05,5.19,5.19,0,0,0-3.66-.15l-18,6.39a2.51,2.51,0,0,0-1.5,1.94h0a1.62,1.62,0,0,1-2,1.37,1.59,1.59,0,0,1-1-1.35,1.27,1.27,0,0,0-.79-1.06,1.44,1.44,0,0,1-1-1.09A1.89,1.89,0,0,1,343.27,296Z" style="fill:#37474f"></path></g><path d="M341.11,136.57a30.4,30.4,0,0,1,10.64-3.5V428.28a30.26,30.26,0,0,1-10.58-3.48c-4.54-2.63-6.81-6.06-6.81-9.5l-.06-92h0V317.1h0v-.16h0a6.07,6.07,0,0,1,.06-.85l-.06-16.54c0-.23,0-.46.05-.69l-.05-6c0-.26,0-.51.06-.77l-.06-146C334.3,142.62,336.57,139.19,341.11,136.57Z" style="opacity:0.1"></path><path d="M374,136.57c4.54,2.62,6.81,6.05,6.81,9.49s-2.27,6.87-6.81,9.49c-9.08,5.24-23.8,5.24-32.88,0-4.54-2.62-6.81-6.06-6.81-9.49s2.27-6.87,6.81-9.49C350.19,131.32,364.91,131.32,374,136.57Z" style="fill:#263238"></path><path d="M377.69,156.17c-1.25.53-2.31-.45-3.39,0s-1.26,1.86-1.68,2.92c-.5,1.3-1,2.59-1.53,3.88-.44,1.08-1.58.62-1.93-.29a8.2,8.2,0,0,0-2-3.55c-1.35-1.12-2.71,0-3.82.8-1.79,1.38-3.89,3.7-6.1,4.32-1.88.53-3-.86-4.13-2.16s-2.4-2.93-4.2-3.21c-1.49-.24-3.28.54-3.48,2.17a.74.74,0,0,1-1.26.45,7.52,7.52,0,0,1-1.3-1.5c-.48,1.1-.95,2.21-1.43,3.31s-1.79-.31-1.78-1.07c.07-3.53-1.34-6.1-3.47-8.78-.92-1.16-1.91-2.55-1.91-4v-3.43s.82,6.53,14.37,10.7c4.64,1.43,12.29,1.55,21.43-1.28s10.7-9.42,10.7-9.42v2.56C380.8,151.15,380.17,155.11,377.69,156.17Z" style="fill:#263238"></path><path d="M336.77,137c.1-5.43,2.28-6,5.81-9.68,3.78-3.93,9.08-2.25,15-2.25s11.26-1.65,15,2.32c3.42,3.58,5.56,4.05,5.74,9.34,0,.23,0,.47,0,.7s0,.33,0,.49l0,6.08c0,3.06-2,6.13-6.09,8.48q-.45.25-.9.48c-7.89,4.06-19.84,4.05-27.7,0-.25-.15-.51-.29-.77-.43-4.07-2.35-6.09-5.42-6.09-8.48l0-6c0-.2,0-.4,0-.6S336.76,137.14,336.77,137Z" style="fill:#455a64"></path><path d="M363.17,137.5a.48.48,0,0,0,.2-.38.33.33,0,0,0,0-.17l0,0s0-.12,0-.12l-.31-.19-.09,0h0a.6.6,0,0,0-.48-.09h-.06l-.18.18,0,.06h0l-.24.24v.24a.57.57,0,0,0,.16.45h0l.05,0h0l.06,0v0l.07.08.18.2h.36l.11-.15h0l.24-.42Zm-.06-4.55.05-.1,0-.06a.3.3,0,0,0-.29-.2l-.05-.05-.11.06-.08,0a.31.31,0,0,0-.3-.09.34.34,0,0,0-.2.17h-.18l-.15.07,0,0a.48.48,0,0,0-.09.21.31.31,0,0,0,0,.09.5.5,0,0,0-.24.19v0l-.09.25.28.41.13,0a.45.45,0,0,0,.16,0,.53.53,0,0,0-.15.12h0l-.19.11,0,.11a.41.41,0,0,0,.15.38h0c.27.19.54-.07.65-.18l.06-.06v-.36l-.11-.1h0l-.07,0,.3-.17,0-.1c0-.06,0-.12,0-.17h0a.33.33,0,0,0,.26-.17h0a.3.3,0,0,0,.21-.14l0,0h0a.39.39,0,0,1,0-.06h0v0h0l.08-.16Zm1.54-6.2.15-.26v-.08a.38.38,0,0,0-.42-.32.47.47,0,0,0-.44.46v0l0,.19.33.15.08,0a.62.62,0,0,0,.16-.07l.05,0Zm1.13,12a.39.39,0,0,0-.23-.4.36.36,0,0,0-.43.08l0,0-.05.11v0a.34.34,0,0,0,.23.33h0l.17.12.08,0A.35.35,0,0,0,365.78,138.78Zm-5.88-11.09a.59.59,0,0,0-.07-.27l0,0-.06-.11-.17-.28H359l-.24.3,0,.14-.15.13v.07s0,.06,0,.09a.53.53,0,0,0,.1.28v0a.76.76,0,0,0,0,.16l0,.08a1.21,1.21,0,0,0,.05.18l0,.07.3.12.08,0a.43.43,0,0,0,.19-.13l.07,0a.52.52,0,0,0,.25-.39v0l.13-.12,0-.07A1,1,0,0,0,359.9,127.69Zm1.44,2.31H361a.62.62,0,0,0-.39.23,1.33,1.33,0,0,0-.67,1.87l0,0,.14.16.05,0a1.65,1.65,0,0,0,1.08.29,1.38,1.38,0,0,0,.47-.16l.08,0a.76.76,0,0,0,.48-.6,1,1,0,0,0,.17-1l-.05-.17-.17-.06a.6.6,0,0,0-.28-.26h0a.56.56,0,0,0-.21-.19.64.64,0,0,0-.33-.07Zm1.21-2.68.12-.17,0-.1a.44.44,0,0,0-.19-.19.33.33,0,0,0-.18-.11l-.08-.1-.23,0-.15.1,0,0a.41.41,0,0,0,0,.26h0l-.08,0h0l-.18.16h0l0,0a.42.42,0,0,0-.09.14l0,.06h0v.08a.3.3,0,0,0-.08.17.28.28,0,0,0,0,.13V128l.14.12.05-.06,0,.06.25.11.09-.07h0a.31.31,0,0,0,.23,0h0l.22,0,0-.13a.27.27,0,0,0,.16-.2.39.39,0,0,0,0-.14s0,0,.07,0,.27-.1.27-.39v0Zm9.49,1.74v-.17a.74.74,0,0,0-.38-.67l-.09-.06-.4,0-.07.07a.55.55,0,0,0-.14.17l0,.07h-.27l-.09.11a.38.38,0,0,0-.09.13.63.63,0,0,0-.09.35v0l0,.26,0,.05a.53.53,0,0,0,.38.24l0,.08.15,0a.54.54,0,0,0,.55-.27.66.66,0,0,0,.06-.2h0v0Zm-.18,4.11.42-.32-.14-1-.53-.33-.21.07-.24-.22h-.27a.68.68,0,0,0-.43.21h0a.78.78,0,0,0-.25.07l-.13,0a.9.9,0,0,0-.27.11l-.11.08-.14.5.06.12a.77.77,0,0,0,.26.3l.05.1a.89.89,0,0,0,.68.33h0l.22.19h.11a1.17,1.17,0,0,0,.27,0,1,1,0,0,0,.43-.16l.06,0Zm.78,3.13-.12,0-.12.11,0,0a.34.34,0,0,0,0,.22.3.3,0,0,0,0,.11.33.33,0,0,0,.13.29v0a.43.43,0,0,0,.38.4h.1l.18-.21v-.07a.37.37,0,0,0-.09-.2.6.6,0,0,0,0-.22v0l0-.07v0a.38.38,0,0,0-.34-.36Zm1.75,2.62a.39.39,0,0,0,.11-.28v-.08l-.26-.19-.08,0-.13.06,0,0-.08,0-.09.31.05.07a.39.39,0,0,0,.28.13A.34.34,0,0,0,374.39,138.92ZM368.48,129l.06-.25-.05-.08a.83.83,0,0,0-.48-.38.58.58,0,0,0-.63,0,.44.44,0,0,0-.19.26l-.16.07v.12a1.49,1.49,0,0,0,0,.21,1.76,1.76,0,0,0,.11.54l.06.19.29.16h0l.05,0,.27,0,.06,0h.06a.66.66,0,0,0,.3-.18.39.39,0,0,0,.22-.18v0l0-.08v-.14a.65.65,0,0,0,0-.22ZM367,132.8l-.06,0-.07.18.07,0h-.06l0,.28.11.07h0a.31.31,0,0,0,.07.23h0l0,.23.14,0a.28.28,0,0,0,.26.09.27.27,0,0,0,.21-.15l.06,0,.09,0v-.05h0l.07,0a.33.33,0,0,0,.19-.24.38.38,0,0,0-.13-.33h0v0l-.22-.13,0,0-.05,0a.25.25,0,0,0-.17,0l-.07,0h-.09a.34.34,0,0,0-.2,0A.35.35,0,0,0,367,132.8Zm-.06,3.43s0,.12,0,.13l-.07.11,0,.1a.37.37,0,0,0,.3.25.4.4,0,0,0,.38-.19v0h0l.15-.11,0-.15h0a.36.36,0,0,0-.35-.36h-.24Zm0,5.07h-.16l-.34.48,0,.13s0,0,0,.07a1.13,1.13,0,0,0,.15.65.82.82,0,0,0,.11.39l.09.14.54,0,.06,0,.15,0A.93.93,0,0,0,368,143l0,0,0,0a.52.52,0,0,0,.25-.41.82.82,0,0,0-.22-.59v0l-.23-.36-.18-.07A1.69,1.69,0,0,0,367,141.3Zm1.18-14.51.07-.31-.05-.07,0,0a.53.53,0,0,0-.24-.31l-.06,0-.17,0a.55.55,0,0,0-.24,0h-.05l-.17.15,0,0a.39.39,0,0,0,.06.36l0,0,.05,0a.39.39,0,0,0,.27.21l.23.13.09,0,.12-.08s0,0,0,0Zm1.83-.42,0-.22,0-.05a.77.77,0,0,1-.07-.27v-.07l-.18-.19h-.31a.7.7,0,0,0-.14,0l-.16,0h0l-.11.06,0,0a.58.58,0,0,0-.13.48.17.17,0,0,1,0,.07v0h0l-.07.29.11.07s.1,0,.15,0a.33.33,0,0,0,0,.13l0,0,.08,0,.12.13.1,0a.67.67,0,0,0,.46-.49l.07,0Zm6.07,7v-.12a.64.64,0,0,0-.23-.52.55.55,0,0,0-.49-.08l-.19-.08-.14.1-.15.12-.38.12.24.11a.59.59,0,0,0-.05.23,1.18,1.18,0,0,0,.22.76l.08.11.52.09.11-.08a.72.72,0,0,0,.24-.5v0Zm-28.57,8.41a.42.42,0,0,0-.17-.41.45.45,0,0,0-.38,0,.52.52,0,0,0-.34.29l0,.08.11.3.07,0a.46.46,0,0,0,.38,0h0l.32-.16Zm-.4-3.5.25-.13,0-.11a.41.41,0,0,0-.14-.39v0l-.25-.13-.06,0h-.06c-.27,0-.44.09-.48.3l0,.06.09.2.05,0a.9.9,0,0,0,.32.1l.22.05Zm-1.35-4.35a1.09,1.09,0,0,0-.31-.52l0,0-.2,0,0,0a.57.57,0,0,0-.28.2,1.31,1.31,0,0,0-.18.28.33.33,0,0,0-.16.11h0l0,.06,0,.17v0a.77.77,0,0,0,.51.52.46.46,0,0,1,.2.13l.05.09.37,0,.06-.08a.46.46,0,0,0,.1-.37l0,0a.6.6,0,0,0,.06-.11l0-.05,0-.22,0,0A.31.31,0,0,1,345.75,133.94Zm-3.29-3.72a.5.5,0,0,0-.1-.33v0l-.11-.22-.09,0a1,1,0,0,0-.38-.11h-.08l-.21.24v.11a.63.63,0,0,0,0,.37.59.59,0,0,0,.05.22l0,.08.11,0-.05,0h0l-.07,0a.39.39,0,0,0-.33.43v.06l0,.06.08.17.05,0a.63.63,0,0,0,.49.1H342l.2-.24v-.43l-.21-.19h.06a.62.62,0,0,0,.19-.07l0,0h0A.35.35,0,0,0,342.46,130.22Zm0,6.86a.4.4,0,0,0-.15-.35v0l-.35-.2,0,0-.15-.07,0,.06h0a.4.4,0,0,0-.22.17l-.06,0,0,.1-.06.26.07.06a.63.63,0,0,0,.31.13l.11,0,.05.06h.27l0,0,.08,0,.15-.16Zm16.22-5h-.15a1.33,1.33,0,0,0-.46.18.49.49,0,0,1-.17.08l-.13,0-.37.4v.15a1.21,1.21,0,0,1,0,.19,1.89,1.89,0,0,0,.05.76v0l.1.17,0,0a.64.64,0,0,0,.21.14.55.55,0,0,0,.21.18.84.84,0,0,0,.45.05l.3.24.2-.12a.65.65,0,0,1,.18-.05,1.56,1.56,0,0,0,.9-.43l.09-.1v-.28a.56.56,0,0,0,.17-.48.64.64,0,0,0-.25-.42.61.61,0,0,0-.1-.18l-.05-.08-.2-.08a.76.76,0,0,0-.49-.45l-.14,0-.18.11A.78.78,0,0,0,358.66,132.1Zm-8-6.22a.52.52,0,0,0,0-.61l0-.1-.25-.09-.06,0a.41.41,0,0,0-.2.14.43.43,0,0,0-.09.42.53.53,0,0,0,.36.34h.06l.22-.08Zm3.63,1.37a.7.7,0,0,0,.08-.63l0-.18-.63-.22-.12.08h0a.71.71,0,0,0-.6.89l0,.12.39.29h.29A.88.88,0,0,0,354.25,127.25Zm-1.42,2.32a.63.63,0,0,0-.39-.85h0l-.14-.3-.11,0a.77.77,0,0,0-.42,0,.74.74,0,0,0-.34,0,.67.67,0,0,0-.17.08l-.11-.06-.15.19-.08.11h0a1.41,1.41,0,0,1-.14.17l-.13.06,0,.12-.11.36,0,.06a.43.43,0,0,0,0,0,1.85,1.85,0,0,0,0,.29l-.05,0V130a.73.73,0,0,0,.41.74h0l0,0a.5.5,0,0,0,.58.15.65.65,0,0,1,.18,0h0l.29-.11,0-.06.25-.12.15-.07.06,0,.19-.21,0-.07s0-.07,0-.1h0l0-.14,0-.2.06,0Zm-5.55-1.94,0-.07-.06-.32-.07,0c-.14-.1-.43-.21-.73.19l0,.06v.32l.06.06.07.05a.43.43,0,0,0,.34.08A.63.63,0,0,0,347.28,127.63Zm.94,3.61a.59.59,0,0,0,0-.66l-.06-.08-.4-.18h-.18l-.25-.15-.17.07a.75.75,0,0,0-.41.41.63.63,0,0,0,.05.52l0,.1a.86.86,0,0,0,0,.16.64.64,0,0,0,1.07.45l.07-.06.13-.33v-.13A.85.85,0,0,0,348.22,131.24Zm1.28,6,0,.07-.15.14.05,0v0a.45.45,0,0,0,.09.33V138l.09.08.26.19.11,0a.75.75,0,0,0,.3-.28.35.35,0,0,1,.09-.11l.08,0,0-.08.12-.22,0-.07,0-.09-.11-.26-.06,0a.46.46,0,0,0-.48,0l0,0Zm-3-7.48-.19-.21h0a.38.38,0,0,0-.38,0l-.06,0-.13.23v.06a.83.83,0,0,0,0,.13.2.2,0,0,1,0,.07v0l.12.38.14,0a.47.47,0,0,0,.37-.11.49.49,0,0,0,.16-.4.41.41,0,0,1,0-.11Zm3,9.9a1.37,1.37,0,0,0-.1.4,1.13,1.13,0,0,0,0,.26,2.76,2.76,0,0,1,0,.29v0l0,.2,0,0a1,1,0,0,0,.75.41l.12,0-.05,0,0,0,.45.25.17-.15a1.28,1.28,0,0,0,.4-.82,1.54,1.54,0,0,0-.3-1l-.05-.08-.36-.14-.1,0a1.1,1.1,0,0,1-.48,0l-.11,0-.39.22Zm9.82-1.94h0l0,0,.06.12a.56.56,0,0,0,0,.12s0,.07,0,.09a.92.92,0,0,0,.08.3.37.37,0,0,1,0,.11v.08l.21.25h.1l.11,0a1.37,1.37,0,0,0,.47,0h0l.11-.05,0,0a.35.35,0,0,0,.1-.12.45.45,0,0,0,.12-.12.48.48,0,0,0,0-.15.58.58,0,0,0,.23,0,.62.62,0,0,0,.27-.09l.08,0,.19-.06.24-.52-.05-.15v0a1,1,0,0,0,.07-.79l0-.1-.33-.26h-.09v0l-.45-.35-.38,0-.27.06a.3.3,0,0,0,0-.27l0-.06-.1-.09-.06-.06a.34.34,0,0,0,0-.34.31.31,0,0,0-.24-.13.4.4,0,0,0,0-.15v0l-.13-.13h0a.49.49,0,0,0-.24,0,.4.4,0,0,0-.13,0l-.07,0h-.09l-.19.23.05.33.08.14h0a.62.62,0,0,0-.24,0l-.11,0,0,.1a.32.32,0,0,0-.18.15h0a.43.43,0,0,0-.19.31l-.08,0v.17h0a.37.37,0,0,0,.11.26.77.77,0,0,0,.91.57Zm.67-1.42h0Zm-.17,0,.17,0a1.43,1.43,0,0,0-.15.11A.59.59,0,0,0,359.78,136.32ZM352,134.71l.08-.05a.28.28,0,0,0,.3-.23l0,0,.06-.08v0a.56.56,0,0,0,0-.12.48.48,0,0,0,0-.31l0,0-.06-.11-.16-.26-.07,0h0a.58.58,0,0,0-.46-.06v-.33l-.06-.09a.81.81,0,0,0-.56-.38H351a.92.92,0,0,0-.42-.16h-.07l-.14.06h-.33l-.08.19a1.29,1.29,0,0,0,.28,1.47l.1.1.28,0a.39.39,0,0,0,.28.12H351l.2-.16v0a.36.36,0,0,0,.13-.22v.13h0l0,.3.11,0,.08.05a1.49,1.49,0,0,0,.31.18Zm-.62-.82v0h0Zm.34,4.78a.35.35,0,0,0,.3-.36.5.5,0,0,0,0-.12.57.57,0,0,0,0-.22.28.28,0,0,0,0-.09v0l0-.09v0a.4.4,0,0,0-.33-.19l-.13,0-.13,0a.43.43,0,0,0-.29.16l0,0,0,.11v0a.34.34,0,0,0,0,.1.43.43,0,0,0,.25.38l0,0,.11.13.13-.1-.08.14.2.12Zm.41-2.08v.11l.28.35.11,0a.72.72,0,0,0,.33,0h.1a.76.76,0,0,0,.57-.29l0,0,.24-.06.06-.07a1.1,1.1,0,0,0,.14-.18.83.83,0,0,0,.1-.39l0,0v-.62l-.77-.43-.49.2-.06.18-.27.05-.07.09-.07.1a.65.65,0,0,0-.07.41v0a.6.6,0,0,0-.08.21l0,.12A.94.94,0,0,0,352.08,136.59Zm-2.77,7v.09l.17.35.09,0a.62.62,0,0,0,.63,0l.07,0,.05-.08a.66.66,0,0,0,.47-.36l.31-.34,0-.16A1.1,1.1,0,0,0,351,143a.13.13,0,0,1,0-.07l0-.15-.5-.24-.13.06-.1,0a1,1,0,0,0-.61.28l-.08.08v.32A.79.79,0,0,0,349.31,143.64Zm4.81-1.5a.32.32,0,0,0,.17,0l0,0,.11.07.49-.07.08-.1a.61.61,0,0,0,0-.75v0a.66.66,0,0,0-.28-.39v-.08l-.05-.07a.39.39,0,0,0-.45-.13l-.05,0H354l-.07.1a1.16,1.16,0,0,0-.09.14l-.15.05v.1a.58.58,0,0,0-.14.44,1,1,0,0,0,.25.48l.08.09,0,0,.16.09Zm-10.31-.88v.07l.11.24.06,0a.62.62,0,0,0,.7-.09l.1-.07.08-.3,0-.07a.58.58,0,0,0-.17-.21.53.53,0,0,0-.49-.06A.62.62,0,0,0,343.81,141.26Zm-4.05-6.44.4-.15.29-.52-.15-.47-.12-.05a.41.41,0,0,0-.21,0h0l-.1,0a.54.54,0,0,0-.69.29l-.05.07v.1l0,.25,0,.07a.91.91,0,0,0,.52.46Zm15.36,3.54h.08l.2-.22V138a.5.5,0,0,0-.16-.4.46.46,0,0,0-.38-.1l-.11,0-.18.37,0,.07v0A.44.44,0,0,0,355.12,138.36Zm-11.75.66.13-.23v-.07a1.19,1.19,0,0,0-.13-.39,1.47,1.47,0,0,1-.12-.25l0-.08-.31-.15-.12.06a.46.46,0,0,0-.27.43l0,0,.06.35.06,0,0,.05c.19.28.41.37.65.25Zm9.83,5.68.31-.16,0-.11a.43.43,0,0,0-.16-.41A.43.43,0,0,0,353,144a.56.56,0,0,0-.35.3l0,.07.11.31.08,0a.43.43,0,0,0,.37,0Zm16.61-5.52a.53.53,0,0,0,.72-.2s0,0,0-.06l.22-.11,0-.23a.73.73,0,0,0-.82-.66.49.49,0,0,0-.49.24l0,.06,0,.26,0,.05a.65.65,0,0,0,.15.23v0l.19.34Zm-5.8-8.51.06,0h.27l.06,0a1,1,0,0,0,.28-.3,1.91,1.91,0,0,1,.17-.22l.06-.06,0-.35-.11-.09a.47.47,0,0,0-.51,0h0l-.28.22v.07l0,.06C363.76,130.27,363.79,130.51,364,130.67Zm9.19,3.53.19-.18v-.21l-.15-.19h-.18v0h-.14c-.14,0-.3.08-.32.34V134l.22.24.11,0v0Zm-17.93-3a.46.46,0,0,0,.34.08A.66.66,0,0,0,356,131l0-.07-.06-.32-.07-.05c-.14-.1-.43-.21-.73.18l-.05.07,0,.32.06.06Zm.62-2.54.24.16.1-.07a.7.7,0,0,0,.26-.43.8.8,0,0,0-.11-.57l0,0-.19-.09h-.05a.51.51,0,0,1-.27,0h-.06l-.22.1,0,0a1.11,1.11,0,0,0-.07.22c0,.05,0,.09,0,.14a1,1,0,0,1,0,.16v0l0,.11v0a.54.54,0,0,0,.4.27l.06,0,0,0Z" style="fill:#fff;opacity:0.2"></path><path d="M337.76,132.45l.3.21a2.1,2.1,0,0,1,.78,1.07,4.89,4.89,0,0,1,.24.93A6.41,6.41,0,0,1,339,136a2.08,2.08,0,0,0,.29,1.45c.58.77,1.76.61,2.68.91a2.57,2.57,0,0,1,1.72,2.28,11.6,11.6,0,0,1-.36,2.16,1.89,1.89,0,0,0,.68,1.94,2,2,0,0,0,1.93-.23,5.5,5.5,0,0,1,1.82-.89c.67-.1,1.49.34,1.45,1a2.28,2.28,0,0,0,0,.45.9.9,0,0,0,.5.58,1.83,1.83,0,0,1,.63.46c.18.27,0,.51-.08.76a6.66,6.66,0,0,0-.34,1.07c-.19.85.17,2,1,2,1.06,0,1.55-1.57,2.61-1.64a6.44,6.44,0,0,1,1.19.24c1.13.16,2.05-1.06,2.07-2.2a7.38,7.38,0,0,0-1.05-3.21,4.64,4.64,0,0,1-.57-3.29,2.6,2.6,0,0,1,2.87-1.7c1.23.24,2.12,1.34,3.32,1.7a14.79,14.79,0,0,0,2.91.14c1,.09,2.05.69,2.09,1.66s-.83,1.58-1.08,2.44a2.21,2.21,0,0,0,2,2.63,2.88,2.88,0,0,0,2.79-2.1c.28-.92.17-2,.85-2.76.14-.15.28-.29.41-.45a1.65,1.65,0,0,1,1.38-.67c.67,0,1.32.3,2,.33s1.47-.33,1.54-1c.11-1-1.52-1.71-1.27-2.72.18-.75,1.23-.89,1.7-1.5a2,2,0,0,0,0-2,5.39,5.39,0,0,1-.67-1.95,2,2,0,0,1,.26-1c1.21,1.34,1.93,2.79,2,5.75,0,.23,0,.47,0,.7s0,.33,0,.49l0,6.08c0,3.06-2,6.13-6.09,8.48q-.45.25-.9.48c-7.89,4.06-19.84,4.05-27.7,0-.25-.15-.51-.29-.77-.43-4.07-2.35-6.09-5.42-6.09-8.48l0-6c0-.2,0-.4,0-.6s0-.28,0-.43A9.41,9.41,0,0,1,337.76,132.45Z" style="opacity:0.2"></path><path d="M362.49,142.33a.63.63,0,0,0-.41.18l-.24,0-.1.13c-.06.08-.11.17-.16.25a2.75,2.75,0,0,0-.25.73l-.05.25.24.4h0l0,.1.29.23h.18l.13,0s0,.07,0,.11a.65.65,0,0,0,.38.58l.05,0h0l.2.22h.26a.59.59,0,0,0,.52-.64h0l-.05-.36-.34-.25a1.71,1.71,0,0,0,.11-.27l0,0,.25-.26v-.13a1.1,1.1,0,0,0-.32-.79A.81.81,0,0,0,362.49,142.33Zm8.72,1.1a.39.39,0,0,0,0-.43h0c-.18-.28-.53-.14-.68-.08l-.09,0-.15.34.07.14h0a.41.41,0,0,0,.56.13v0l.22,0Zm-26,5.47.17-.37-.05-.09a.45.45,0,0,0-.63-.15l-.09.05-.1.06v.43l.1.07a.52.52,0,0,0,.45,0h.05Zm2.6-2.41a.65.65,0,0,0-.17-.64.87.87,0,0,0-.58-.6l-.14-.05-.12.08a.48.48,0,0,0-.32.06h0a.5.5,0,0,0-.23.05.67.67,0,0,0-.22.19h-.12l-.13.2h0a.47.47,0,0,0,0,.39,1.12,1.12,0,0,0,.94,1.4h.23l0,0a1.43,1.43,0,0,0,.75-.6,1.25,1.25,0,0,0,.13-.4Zm-9.12-8.05a.33.33,0,0,0-.26-.37v0l-.14-.11-.09,0a.3.3,0,0,0-.23.23h0c-.05.26.23.36.35.41l.06,0,.27-.11,0-.12Zm3.25,4.71.47-.54-.08-.19a.79.79,0,0,0-.55-.4l-.07,0-.12-.05-.46.19-.05.12a.83.83,0,0,0-.06.21.6.6,0,0,0,.14.43.73.73,0,0,0,.57.2h0Zm15.23.22a.45.45,0,0,0-.17-.63l-.08-.06-.11-.06-.39.19v.12a.55.55,0,0,0,.19.43l0,0,.07.09.41,0Zm-9.94,9.83-.08.38.07.08a.43.43,0,0,0,.36.16.68.68,0,0,0,0,.14.48.48,0,0,0,.27.27H348l.22,0,.05,0a.44.44,0,0,0,.13-.22v0l0-.29-.06-.07a.36.36,0,0,0-.34-.14h0v-.1l-.12-.25h-.45l-.07.1Zm2.41-3.9a.84.84,0,0,0-.11.65v0l0,.08v0l.06.07,0,0,0,.14.08.37.43.24.24-.1.05,0,.57-.34v0a.61.61,0,0,0,.5-.32.48.48,0,0,0,.07-.23v-.07l.06-.16-.24-.44-.13,0v0a.85.85,0,0,0-.52-.44l-.08,0-.35.09-.05.06h0l-.46.13Zm3.78-.63a.5.5,0,0,0,.27,0h0l.29-.1,0-.09a.37.37,0,0,0,0-.37l0,0,.09-.05.16-.23-.2-.41h-.13l-.06,0-.38.11,0,.1a.45.45,0,0,0,0,.4.31.31,0,0,0-.11.09.45.45,0,0,0-.11.37v.05l.15.19ZM352.28,153a.54.54,0,0,0,0,.74h0l.24.21.52-.05.11-.15.18-.06.06-.13a.55.55,0,0,0-.07-.57.58.58,0,0,0-.6-.16h0v0l-.26,0-.17.15Zm24.09-13.94-.05.06,0,.3.06.05a.37.37,0,0,0,.31.07h0l.16.08H377a.36.36,0,0,0,.26-.2.34.34,0,0,0,0-.29V139l-.07-.06a.24.24,0,0,0-.09-.06l-.12-.2,0,.15a.29.29,0,0,0-.13,0A.67.67,0,0,0,376.37,139.09Zm-38.12,7.65,0,.09.18.32h.1a.57.57,0,0,0,.22,0,.14.14,0,0,0,0,.07l0,.06a.71.71,0,0,0,0,.82l.08.12.22-.08,0,0,.07.06.33-.08,0-.09,0-.08.12-.15,0-.17h0v-.13l0-.05a.31.31,0,0,0-.15-.1v-.06a.49.49,0,0,0-.22-.5l0,0H339a.3.3,0,0,0-.14-.22.31.31,0,0,0-.21,0,.39.39,0,0,0-.15,0,.35.35,0,0,0-.22.12A.47.47,0,0,0,338.25,146.74Zm1.28-6.23a.38.38,0,0,0,.4.05h0c.29-.14.19-.49.15-.64l0-.08-.3-.18-.14.06h0a.39.39,0,0,0-.18.52h0v.21Zm5,9.53,0,.4.12.3.06,0a.91.91,0,0,0,.43.19h0l.48.05.17-.14h.06l.1-.07,0,0,.16-.12a.65.65,0,0,0,.3-.46.52.52,0,0,0,0-.17l.24.13h0l.17,0h0a.59.59,0,0,0,.2-.07.46.46,0,0,0,.23-.06.67.67,0,0,0,.26-.28l.32-.08v-.21l.06-.14a1.33,1.33,0,0,0,.17-.83l0-.11-.19-.15a.54.54,0,0,0-.25-.36.59.59,0,0,0-.42,0l-.17,0H347l-.16.1a.61.61,0,0,0-.55.1l-.1.08,0,.18a.8.8,0,0,0-.13.13l-.07.11a.9.9,0,0,0-.11.4.35.35,0,0,1,0,.16l-.05.09.08.42-.08,0,.05,0h0l-.24-.26-.17,0a.63.63,0,0,0-.4.24.51.51,0,0,0-.25.25Zm-6.44-6.56v0l0,.22.24,0-.21.11.16.29.11,0a.51.51,0,0,0,.61-.22.52.52,0,0,0,.06-.16,1,1,0,0,0,.2-.24.43.43,0,0,0,.05-.12v0l0-.12v0a.54.54,0,0,0-.26-.46.47.47,0,0,0-.19-.06.4.4,0,0,0-.14-.11.58.58,0,0,0-.46,0h0l-.13.1,0,0-.08.12A.56.56,0,0,0,338.07,143.48Zm3.51,6.06-.32.36,0,.5.3.26h.25l.08,0a.63.63,0,0,0,.26.22.87.87,0,0,0,.95-.22l.1-.14,0-.35,0-.07a.78.78,0,0,0-.11-.18v-.51l-.1-.06a1.15,1.15,0,0,0-.08-.15l0,0-.1-.09h0a.54.54,0,0,0-.54-.05h0l-.54.19-.08.23,0,0Zm-1.11-4.45a.61.61,0,0,0,.31.86l.1,0,.4-.13.05-.08a.44.44,0,0,0,.2.4h0a.61.61,0,0,0-.42.25.7.7,0,0,0-.09.58l0,.11.36.31h.23a1.35,1.35,0,0,0,.39,0,1.5,1.5,0,0,1,.24,0l.12.14.75-.14.06-.21.05-.08a1.1,1.1,0,0,0,.18-1l0-.13-.43-.28-.3.05-.2-.15-.14,0-.05,0,0-.21-.22-.16-.09,0-.15-.17-.26.2a.65.65,0,0,0,0-.39.62.62,0,0,0-.39-.37l-.14-.06-.47.32v.15Zm28,7.09a.39.39,0,0,0,0,.34.61.61,0,0,0,.38.23l0,0,.28.11.13,0a1.27,1.27,0,0,0,.44-.22l.09-.07,0-.42-.08,0,0,0a.78.78,0,0,0-.35-.31.73.73,0,0,0-.23-.16l-.12-.05-.31.22,0,0-.07.09a.59.59,0,0,0-.13.23v.07Zm1.9-5.94-.05.06v.33l.07.06.06.05a.44.44,0,0,0,.35.07.62.62,0,0,0,.37-.31l0-.07-.06-.32-.07-.05C370.93,146,370.65,145.85,370.35,146.24Zm-3.78,2.55-.1.11V149a.52.52,0,0,0,.2.39l0,0v.09a.35.35,0,0,0,.12.28.39.39,0,0,0,.34.09h.07l.22-.2v-.14l0-.08.13,0,.17-.22.22,0,.09-.09a.71.71,0,0,0,.15-.62v-.05l.1-.1a.53.53,0,0,0,.14-.42.63.63,0,0,0-.29-.44l-.08-.06h-.43l-.15.14a1.64,1.64,0,0,0-.29.2.84.84,0,0,1-.19.12l-.16,0-.42.54.09.18v0h0ZM365,145.14l0,.07v.32l.06.06.07,0a.44.44,0,0,0,.35.08.67.67,0,0,0,.37-.32l0-.07-.06-.32-.07,0C365.6,144.86,365.31,144.75,365,145.14Zm11.14-8.26.05,0,.12-.05h.06l.13-.05h0a.24.24,0,0,0,.14-.19v-.05h0a1,1,0,0,0,0-.26.45.45,0,0,0-.13-.23l0,0v0l-.2-.21h-.15a.25.25,0,0,0-.12,0,.41.41,0,0,0-.22,0l0,0-.11.19v0h0a.68.68,0,0,0-.17.17l0,0v.18a.48.48,0,0,0,.11.19l0,0v.07l0,.05.13.15h.1a.85.85,0,0,0,.2,0h0Zm-2.72,7v.44l.06.09,0,.06v0a1,1,0,0,0,.35.45.7.7,0,0,0,.33.33h0l.15,0h.22a1.58,1.58,0,0,0,.35-.09h0l.42.05.12-.09a1.35,1.35,0,0,0,.52-.86,1,1,0,0,0-.08-1,.67.67,0,0,0-.45-.25l-.15-.25h-.2l-.34,0a2.71,2.71,0,0,0-.86.28l-.28.12-.2.51v0Zm-2.49,6.15,0,.13.18.11v.13l.25.19.07,0,.08,0h.17l.1-.12h0l.1-.07v-.06a.29.29,0,0,0,0-.16l.05,0a.47.47,0,0,0,.22-.41.53.53,0,0,0,.61.16l.05,0,.18-.15,0-.05a.51.51,0,0,0,.05-.34l.07-.08,0-.1.22-.13,0-.26c0-.06,0-.1,0-.12l.1-.09v-.14a.54.54,0,0,0-.34-.53.62.62,0,0,0-.67.24h0a.93.93,0,0,0-.51.4.56.56,0,0,0-.08.27v.07l.05.11h-.12l-.08,0-.12.3,0,.07h0a.88.88,0,0,0,.1.17.09.09,0,0,0,0,.05h-.06A.65.65,0,0,0,370.94,150.07Zm-13.35-4.86a.46.46,0,0,0,.33,0h.16a.41.41,0,0,0,.42-.4.44.44,0,0,0-.07-.22l0,0-.2-.1h-.08a.27.27,0,0,0-.07-.08.37.37,0,0,0-.4-.06l-.06,0-.14.24v.06a.11.11,0,0,0,0,.05l-.12.14,0,.11A.4.4,0,0,0,357.59,145.21Zm.17,3c-.08.11-.17.35.17.61l.09.07.1,0,.26-.1,0-.11a.49.49,0,0,0-.23-.49l-.06-.05-.3,0Zm5.76-6.1a.32.32,0,0,0,.26-.13.3.3,0,0,0,.05-.16.24.24,0,0,0,0-.15.34.34,0,0,0-.18-.28h0l-.11-.14h-.1a.35.35,0,0,0-.27.09h-.07a.33.33,0,0,0-.22.09l0,0-.05.2,0,.05a.59.59,0,0,0,.05.13v.07h0v.05h0a.28.28,0,0,0,.26.22.27.27,0,0,0,.22-.1h.06l0,0Zm-7.24,9.73,0,.14a.52.52,0,0,0,.18.52.59.59,0,0,0,.59,0l0,0v0l.25,0,.13-.17v0a.5.5,0,0,0-.17-.67h0l-.27-.15-.47.15-.07.15Zm6.35-1-.12.34.07.13a.51.51,0,0,0,.47.24h0l.35-.09,0-.07,0,0a.53.53,0,0,0,.2-.72l0-.06-.26-.11-.07,0a1,1,0,0,0-.39.17,1.72,1.72,0,0,1-.25.14Zm-3.8-9.66a.58.58,0,0,0-.15.47.68.68,0,0,0,.27.47l.13.1.57-.15.05-.15a.92.92,0,0,0,.07-.26.64.64,0,0,1,0-.07l0-.15-.33-.5h-.16A.7.7,0,0,0,358.83,141.17Zm2,6.24.46.15.16-.14h0a.49.49,0,0,0,.42,0h0l.41,0,0-.24a.47.47,0,0,0,.25-.39.47.47,0,0,0-.17-.43.34.34,0,0,0,0-.1l0-.17-.09,0v0l0-.13a.56.56,0,0,0-.33-.41.65.65,0,0,0-.61.09h-.09l-.29.32h-.08l-.06.08a.55.55,0,0,0-.14.26.54.54,0,0,0-.05.11v0l0,.09v.06a.6.6,0,0,0-.12.32.69.69,0,0,0,0,.24l0,.11.27.2.09-.12Zm-1.16,7.22h.07l0,0a.17.17,0,0,0,0,.07h0l0,0h0l.06.22h0l.05.13.09,0a.41.41,0,0,0,.45-.06h.08l.06-.16,0-.1a.42.42,0,0,0,.37-.18.38.38,0,0,0,0-.33l.15-.11,0,0,.08-.2v-.05a.62.62,0,0,0-.09-.28.51.51,0,0,0-.12-.13l-.05-.06-.06-.1-.35-.09-.34.21-.11.16v0a.39.39,0,0,0-.14.17H360l-.06.06a.42.42,0,0,0-.1.39h0A.39.39,0,0,0,359.7,154.63Z" style="fill:#fff;opacity:0.1"></path><path d="M371.22,132.59a.41.41,0,0,0-.07.22c0,.21.1.42.09.63s-.28.43-.41.26c.36.24.08.87-.34,1s-.66-.21-1-.26a.67.67,0,0,0-.32,0,1.3,1.3,0,0,1-1,0,4.19,4.19,0,0,1-.54-.4.81.81,0,0,0-.64-.19c-.37.1-.57.62-1,.61s-.46-.28-.54-.54-.11-.64-.34-.85A.18.18,0,0,0,365,133a.52.52,0,0,0-.36.11,3.81,3.81,0,0,1-.32.24.57.57,0,0,1-.55,0,.69.69,0,0,1-.3-.49c0-.23,0-.5-.14-.67a.53.53,0,0,0-.58,0,.7.7,0,0,0-.43.67c.06.43.62.59.81,1a.66.66,0,0,1,0,.65.57.57,0,0,1-.59.25,1,1,0,0,0-.35-.06,1.22,1.22,0,0,0-.33,0,.55.55,0,0,0-.35.22c-.22.34.11.76.14,1.16a1,1,0,0,1-1.26.83,1.48,1.48,0,0,1-.86-1.42c0-.3,0-.68-.23-.81s-.59.09-.84,0a.52.52,0,0,1-.18-.65,5.89,5.89,0,0,0,.26-.7,1.07,1.07,0,0,0-.62-1,2.94,2.94,0,0,0-1.25-.25c-.4,0-.89,0-1.05.4a.74.74,0,0,0,.22.76c.22.24.56.4.74.69a.59.59,0,0,1,.06.14.57.57,0,0,1,0,.48.49.49,0,0,1-.47.26c-.22,0-.45-.18-.63-.06a.46.46,0,0,0-.12.41.63.63,0,0,1,0,.43.42.42,0,0,1-.51.1,1.75,1.75,0,0,1-.44-.33.74.74,0,0,0-.7-.15,1.08,1.08,0,0,0-.54.37.63.63,0,0,0-.11.48.93.93,0,0,0,.52.62l.25.09a2.08,2.08,0,0,1,.47.24.89.89,0,0,1,.4.68.55.55,0,0,1-.46.58c-.19,0-.42-.07-.55.07s0,.41,0,.61a.42.42,0,0,1-.37.25c-.14,0-.41-.06-.51.07s.36.64.5.79l.07.08c.16.2.2.54,0,.66s-.43,0-.62.07a.55.55,0,0,0-.25.53,1.57,1.57,0,0,1,0,.61.7.7,0,0,1-.84.37,1.27,1.27,0,0,1-.18-.06,1.83,1.83,0,0,1-.67-.76c-.08-.13-.16-.28-.25-.41a.51.51,0,0,0-.44-.18,1.13,1.13,0,0,1-.66-.07.65.65,0,0,1-.21-.54,4,4,0,0,0,0-.6.5.5,0,0,0-.34-.45c-.25,0-.45.2-.7.21s-.5-.31-.49-.6a1.76,1.76,0,0,1,.33-.79,1.47,1.47,0,0,0,.29-.79.93.93,0,0,0-.45-.64.6.6,0,0,0-.26-.11,1,1,0,0,0-.23-.05.35.35,0,0,0-.2.1,3.44,3.44,0,0,0-.41.35,1.72,1.72,0,0,1-.64.43.69.69,0,0,1-.72-.15c-.14-.15-.18-.38-.33-.52s-.33-.15-.46-.27a.63.63,0,0,1-.18-.49,2,2,0,0,1,1-1.41,2.62,2.62,0,0,1,1.35-.6A8.74,8.74,0,0,1,348,134a.9.9,0,0,0,1-.4.6.6,0,0,0,.06-.22,1.21,1.21,0,0,0,0-.19.42.42,0,0,0-.25-.27,1.06,1.06,0,0,0-.5-.08,1.21,1.21,0,0,1-.5-.1.38.38,0,0,1-.19-.43.76.76,0,0,1,.17-.23.27.27,0,0,0,.06-.27.27.27,0,0,0-.25-.11,1,1,0,0,0-.68.23c-.09.06-.15.14-.24.2a.34.34,0,0,0-.09.08l-.32.34a2.8,2.8,0,0,1-.69.59c-.49.26-1.3,0-1.28-.53a1.36,1.36,0,0,0,0-.49c-.07-.24-.37-.3-.59-.4a1,1,0,0,1,.38-1.94,1,1,0,0,1,.7-1.21,1.9,1.9,0,0,1,1.5.35c.28.18.52.39.78.58a2.19,2.19,0,0,0,.39.29,1.93,1.93,0,0,0,.5.1c.29,0,.44-.39.43-.63s-.14-.62-.12-.94.33-.65.61-.51a.46.46,0,0,1,.09-.68,1.33,1.33,0,0,1,.74-.2,1,1,0,0,1,.9.24,1.17,1.17,0,0,1,.12.77.71.71,0,0,0,.27.71c.3.16.64-.11.88-.36s.59-.51.88-.34a.82.82,0,0,1,.35-1,1.23,1.23,0,0,1,1.09,0c.31.13.52.41.83.52a1.1,1.1,0,0,1,.81.86,2.67,2.67,0,0,0,.38.92,1,1,0,0,0,.64.3,1.49,1.49,0,0,0,1.8-.65l.25-.53c.12-.41.71-.49,1.08-.28a4.27,4.27,0,0,1,.89.91,1.1,1.1,0,0,0,1.13.41c.94-.39.19-2.26,1.13-2.62s1.67,1,2.37.54c.22-.15.3-.42.46-.63a1.1,1.1,0,0,1,1-.46,1,1,0,0,1,.83.77,2.75,2.75,0,0,1,0,.81c0,.09,0,.18,0,.27s0,.05,0,.07a.3.3,0,0,0,.18.21.63.63,0,0,0,.36,0,1.09,1.09,0,0,1,.36,0,.48.48,0,0,1,.3.74,1.07,1.07,0,0,0-.14.16.2.2,0,0,0,.2.32,2.25,2.25,0,0,0,.68-.16,2.73,2.73,0,0,1,1.09-.32c.38,0,.77.37.67.73-.05.18-.21.32-.23.5s.32.5.61.58.65.18.73.47-.29.65-.63.78A1.54,1.54,0,0,0,371.22,132.59Z" style="fill:#BA68C8"></path><path d="M368.34,131.68c.26.14.43.5.26.73s-.43.2-.67.19a2.88,2.88,0,0,1-2.2-.81c-.2-.28-.33-.65-.66-.78a1.45,1.45,0,0,0-1,.18,2.46,2.46,0,0,1-1.67,0,1.08,1.08,0,0,1-.56-.42.5.5,0,0,1,.08-.64c.28-.22.69,0,1,.14a.62.62,0,0,0,.46.07.48.48,0,0,0,.27-.36,5.44,5.44,0,0,0,0-.57,1.19,1.19,0,0,1,.73-1c.22-.09.52-.07.62.14s0,.46.1.63a.33.33,0,0,0,.34.09,1.09,1.09,0,0,0,.34-.17,1.27,1.27,0,0,1,1-.2.61.61,0,0,1,.42.8c-.07.13-.22.25-.2.4s.13.22.24.31.22.21.17.33-.27.18-.32.33.09.23.19.29.16.09.25.12A4.38,4.38,0,0,1,368.34,131.68Z" style="fill:#fff;opacity:0.2"></path><path d="M361.74,133.07c.24.06.47.32.33.51s-.45.06-.68.13a.64.64,0,0,0-.4.55,3.31,3.31,0,0,1-.12.7c-.09.22-.35.4-.56.3s-.25-.46-.21-.73,0-.63-.23-.72a.74.74,0,0,0-.44,0,.38.38,0,0,1-.41-.11c-.1-.16.06-.36.22-.47s.35-.25.34-.44a.51.51,0,0,0-.11-.25c-.13-.2-.27-.4-.4-.61a1.05,1.05,0,0,0-.6-.52,3.26,3.26,0,0,0-.54,0c-.18,0-.39-.1-.39-.28a.32.32,0,0,1,.14-.25.83.83,0,0,1,1,0,.69.69,0,0,0,.24.18c.2.07.39-.11.53-.27s.35-.33.54-.23.17.37.11.57-.13.44,0,.6a.54.54,0,0,0,.4.14c.13,0,.27,0,.34.11a.67.67,0,0,1,.09.21,1,1,0,0,1,0,.39.28.28,0,0,0,.14.25C361.28,133,361.53,133,361.74,133.07Z" style="fill:#fff;opacity:0.2"></path><path d="M354.93,133.84c.07.2-.14.41-.35.43a1.54,1.54,0,0,1-.63-.12.63.63,0,0,0-.61.11c-.07.08-.1.19-.18.28a1.39,1.39,0,0,1-.37.24,1,1,0,0,0-.25,1.5c.15.18.38.31.45.54a.52.52,0,0,1-.4.65.61.61,0,0,1-.67-.43,2.63,2.63,0,0,0-.13-.57,1.55,1.55,0,0,0-.36-.31,1.55,1.55,0,0,1-.61-1.12c0-.26.09-.58.35-.61s.31.07.44,0,.08-.42.18-.62a.48.48,0,0,1,.46-.18,2.3,2.3,0,0,0,.52,0c.17,0,.34-.2.3-.36s-.23-.22-.32-.35,0-.29.16-.33a4.34,4.34,0,0,0,.48-.14l.36-.13a.66.66,0,0,1,.64.08.7.7,0,0,1,.31.35.43.43,0,0,1-.09.42C354.38,133.5,354.83,133.59,354.93,133.84Z" style="fill:#fff;opacity:0.2"></path><path d="M350.88,137.87c.06.26.11.51.17.76a.62.62,0,0,0,.18.38.83.83,0,0,0,.38.1c.13,0,.27.1.29.22s-.08.23-.13.35a1.26,1.26,0,0,0,0,.61c0,.21-.06.47-.26.5s-.36-.21-.45-.42-.26-.44-.47-.38-.19.16-.31.21a.34.34,0,0,1-.4-.17.57.57,0,0,1,0-.46c.06-.18.19-.35.14-.53s-.35-.29-.59-.33-.52-.17-.52-.41.2-.3.33-.4a.6.6,0,0,0,.2-.22c.05-.1.08-.22.13-.32a.44.44,0,0,1,.32-.24.86.86,0,0,1,.63,0A1.05,1.05,0,0,1,350.88,137.87Z" style="fill:#fff;opacity:0.2"></path><path d="M349.31,129.55c0-.31-.06-.79.36-.87a.44.44,0,0,1,.46.26c.06.11.08.28.21.31s.24-.16.38-.18a.28.28,0,0,1,.26.22,2.3,2.3,0,0,0,.1.35.43.43,0,0,0,.3.22.63.63,0,0,0,.51-.21c.16-.14.29-.33.44-.49a1,1,0,0,1,.64-.32.55.55,0,0,1,.56.38c0,.16,0,.36.1.48s.28.11.43.12a3.06,3.06,0,0,1,1.17.39c.23.12.49.27.51.52s-.32.54-.63.53a5.89,5.89,0,0,1-.91-.19,1.44,1.44,0,0,0-1.05.27,2.9,2.9,0,0,0-.58.63c-.1.12-.2.21-.31.32a.78.78,0,0,1-.4.21.76.76,0,0,1-.6-.17A2.67,2.67,0,0,1,351,132a.56.56,0,0,0-.41-.23.52.52,0,0,0-.36.18,4,4,0,0,1-.3.28.45.45,0,0,1-.33.12.4.4,0,0,1-.25-.19c-.17-.27.16-.59,0-.85s-.59-.07-.74-.31,0-.37.18-.48a2.06,2.06,0,0,0,.46-.31A1,1,0,0,0,349.31,129.55Z" style="fill:#fff;opacity:0.2"></path><path d="M346.37,129.94a.5.5,0,0,1,.19.22.21.21,0,0,1-.09.26c-.08,0-.19,0-.25.05s0,.18,0,.25.17.11.21.19a.35.35,0,0,1-.15.4,2.57,2.57,0,0,0-.37.28c-.21.26-.1.71-.36.92a.4.4,0,0,1-.6-.23c0-.16.06-.34,0-.5s-.27-.25-.45-.33-.36-.25-.29-.43.25-.19.41-.21.35-.07.38-.23-.2-.33-.24-.53.24-.43.44-.49a.57.57,0,0,1,.29,0l.41.13A3.62,3.62,0,0,1,346.37,129.94Z" style="fill:#fff;opacity:0.2"></path><path d="M370.35,129.89a.38.38,0,0,1,.33.45c0,.1-.12.17-.16.27a.42.42,0,0,0,.13.46,1.39,1.39,0,0,0,.44.26c.11,0,.23.11.23.23s-.1.19-.21.21-.22,0-.33,0a2,2,0,0,0-.53.3c-.18.11-.45.13-.56,0s0-.45-.13-.59-.39-.05-.49-.2a.28.28,0,0,1,0-.29,1.88,1.88,0,0,0,.18-.24.84.84,0,0,0,.08-.3.59.59,0,0,1,.07-.26s.09-.07.14-.1a2.29,2.29,0,0,1,.27-.14.32.32,0,0,1,.17,0A1.9,1.9,0,0,1,370.35,129.89Z" style="fill:#fff;opacity:0.2"></path><path d="M366.49,130.1c0,.19-.12.35-.17.53a.58.58,0,0,0,.14.56,1.7,1.7,0,0,1,.19.19.21.21,0,0,1,0,.25.28.28,0,0,1-.25.06.93.93,0,0,1-.63-.48,1.18,1.18,0,0,0-.26-.45.75.75,0,0,0-.38-.13.85.85,0,0,1-.39-.12.28.28,0,0,1-.08-.36.4.4,0,0,1,.2-.11c.27-.09.55-.17.82-.27a.72.72,0,0,1,.59,0A.4.4,0,0,1,366.49,130.1Z" style="fill:#fff;opacity:0.2"></path><path d="M361.13,133.47c0,.22-.33.3-.38.51a1.18,1.18,0,0,1,0,.2.19.19,0,0,1-.28,0,.44.44,0,0,1-.11-.28,1,1,0,0,0-.05-.3c-.06-.13-.2-.23-.23-.38a.28.28,0,0,1,.36-.3c.1,0,.19.11.29.15a2.59,2.59,0,0,1,.29.14A.31.31,0,0,1,361.13,133.47Z" style="fill:#fff;opacity:0.2"></path><path d="M351.4,130.35l.08,0a1,1,0,0,1,.25,0,.71.71,0,0,0,.29-.05.27.27,0,0,0,.11-.1.81.81,0,0,1,.37-.26c.4-.13.8.16,1.12.44a.39.39,0,0,1,.14.2c0,.17-.2.25-.36.3a2.2,2.2,0,0,0-.9.52c-.24.23-.47.53-.8.52s-.53-.32-.83-.41-.37,0-.54-.07-.35-.22-.28-.39a.37.37,0,0,1,.34-.19.92.92,0,0,0,.4-.07,1.84,1.84,0,0,0,.23-.25A.75.75,0,0,1,351.4,130.35Z" style="fill:#fff;opacity:0.2"></path><path d="M349.63,135.84a.46.46,0,0,1-.37.47,1.05,1.05,0,0,1-.65-.11,3.32,3.32,0,0,0-.6-.29,1.23,1.23,0,0,0-1.07.15c-.15.1-.28.24-.43.34a.57.57,0,0,1-.52.07.3.3,0,0,1-.11-.45.47.47,0,0,1-.5-.13.42.42,0,0,1-.05-.5c.19-.3.66-.24.93-.47a2.11,2.11,0,0,0,.3-.37.39.39,0,0,1,.42-.17c.14.06.2.23.33.3s.39,0,.57-.1a1.29,1.29,0,0,1,.89-.17.64.64,0,0,1,.4.32.25.25,0,0,1,.06.2c0,.06-.05.09-.06.15s.11.26.2.36A.76.76,0,0,1,349.63,135.84Z" style="fill:#fff;opacity:0.2"></path></g><g id="freepik--Smoke--inject-132"><path d="M364.09,137c.93-5.72-1.65-10.12-7.24-13.91-6.45-4.37-17.16-10.37-19.67-23.14-4.71-24,26-37.26,32.1-41.75,6.88-5.08,10.61-9.12,9.63-18.84,11,9.35,15.5,29.7-4.77,41.79-15.57,9.29-24.05,19.94-15.33,31.52C368,124.91,368.83,129.82,364.09,137Z" style="fill:#ebebeb"></path><path d="M381.54,54.72c-.74,7.43-9.4,12.64-15.27,16S354,77.1,349,81.93c-4.22,4.08-7.2,9.79-7,15.85.24,9.6,5.95,14.78,11.66,17.6.23.11.37,0-.33-.57-3.34-2.76-6.28-6.33-7.29-9.51a19.44,19.44,0,0,1-.44-11.66c2.1-6.82,7.64-11.48,13.45-15.19,8.71-5.55,22.35-11.75,22.75-23.8C381.79,54.44,381.55,54.58,381.54,54.72Z" style="fill:#fafafa"></path><path d="M366.25,20.5c7.91,10,7,24.24-4.73,31.9s-30.18,16.73-29.74,31.7c-6.81-9.17-7.4-22,4.13-30.8,5.66-4.33,16.8-9.09,22.71-14.79C363.74,33.57,367.12,27.24,366.25,20.5Z" style="fill:#ebebeb"></path><path d="M398.19,59.11c-.2-6.63-1.94-13.68-7.39-18.32-.08-.06-.19.16-.15.22a28.48,28.48,0,0,1,5.81,17.63,27.69,27.69,0,0,1-5.58,16.51c-3.83,4.77-9.29,7.94-14.56,10.79-4.8,2.59-10.18,5.65-13.52,10.09s-2.52,10.81,1.08,15.3c.35.43.58-.22.37-.54-3.37-5-.45-11.8,3.34-15.63,4.08-4.11,9.52-6.41,14.42-9.33s9.31-6,12.23-10.79A29.17,29.17,0,0,0,398.19,59.11Z" style="fill:#ebebeb"></path></g></g><g id="freepik--Text--inject-132"><g id="freepik--text--inject-132"><path d="M224.11,71.36a7.78,7.78,0,0,1,5.73,2.24,4.13,4.13,0,0,1,1.06,3h-3.16c0-1.74-1.71-2.8-3.63-2.8s-3.62.91-3.62,2.51c0,.88.64,1.41,1.62,1.71,2.59.88,4.54.59,6.9,1.74a3.74,3.74,0,0,1,2.33,3.63,4.09,4.09,0,0,1-1.24,3.1c-1.47,1.47-3.86,2-6,2s-4.6-.62-6-2.12a4.52,4.52,0,0,1-1.24-3.25H220c0,2,2.07,3,4.1,3s4.08-.65,4.08-2.51c0-.91-.68-1.41-1.66-1.77-2.71-1-4.19-.47-6.87-1.79a3.85,3.85,0,0,1-2.36-3.66C217.3,72.89,221.13,71.36,224.11,71.36Z" style="fill:#BA68C8"></path><path d="M232.64,74.16V71.74h16v2.42h-6.49v13.9h-3V74.16Z" style="fill:#BA68C8"></path><path d="M249.78,79.92a8.69,8.69,0,1,1,8.68,8.58A8.31,8.31,0,0,1,249.78,79.92Zm8.68-6.14c-3.31,0-5.52,2.6-5.52,6.14s2.27,6.1,5.52,6.1,5.51-2.56,5.51-6.1S261.76,73.78,258.46,73.78Z" style="fill:#BA68C8"></path><path d="M278.79,82H273.5v6h-3V71.74h8.29c3.77,0,6.66,1.57,6.66,5.11v0C285.39,80.42,282.62,82,278.79,82Zm3.48-5.13c0-2.1-1.33-2.72-3.48-2.72H273.5v5.43h5.29C280.94,79.59,282.27,79,282.27,76.88Z" style="fill:#BA68C8"></path><path d="M300.94,71.36a7.78,7.78,0,0,1,5.73,2.24,4.18,4.18,0,0,1,1.06,3h-3.16c0-1.74-1.71-2.8-3.63-2.8s-3.63.91-3.63,2.51c0,.88.65,1.41,1.63,1.71,2.59.88,4.54.59,6.9,1.74a3.74,3.74,0,0,1,2.33,3.63,4.09,4.09,0,0,1-1.24,3.1c-1.47,1.47-3.86,2-6,2s-4.6-.62-6-2.12a4.55,4.55,0,0,1-1.23-3.25h3.15c0,2,2.07,3,4.1,3s4.07-.65,4.07-2.51c0-.91-.67-1.41-1.65-1.77-2.71-1-4.19-.47-6.87-1.79a3.85,3.85,0,0,1-2.36-3.66C294.13,72.89,298,71.36,300.94,71.36Z" style="fill:#BA68C8"></path><path d="M328.59,74.69l-5.76,13.37H320.3l-6-13.37.18,7.08v6.29h-3V71.74h4.54l5.52,13,5.37-13h4.51V88.06h-3V81.77Z" style="fill:#BA68C8"></path><path d="M334.76,79.92a8.69,8.69,0,1,1,8.67,8.58A8.3,8.3,0,0,1,334.76,79.92Zm8.67-6.14c-3.31,0-5.52,2.6-5.52,6.14s2.27,6.1,5.52,6.1,5.52-2.56,5.52-6.1S346.73,73.78,343.43,73.78Z" style="fill:#BA68C8"></path><path d="M371.93,88.06h-3.72l-6-8.23-3.71,3.36v4.87h-3V71.74h3v7.88l8.76-7.88h3.86l-6.72,6.11Z" style="fill:#BA68C8"></path><path d="M377.51,71.74V88.06h-3V71.74Z" style="fill:#BA68C8"></path><path d="M385.35,71.74l9.83,12.69V71.74h3V88.06h-3.48l-9.83-12.69V88.06h-3V71.74Z" style="fill:#BA68C8"></path><path d="M410.23,73.78c-3.4,0-5.55,2.57-5.55,6.14s2.39,6.1,5.63,6.1a5.18,5.18,0,0,0,5.37-4.3h-5.81V79.44h8.29v8.62h-2.24c-.06-.38-.12-1.09-.18-2.07l-.14.18a6.38,6.38,0,0,1-5.37,2.33,8.6,8.6,0,1,1-.06-17.2A8.19,8.19,0,0,1,415.48,73a6.5,6.5,0,0,1,2.48,3.9h-3C414.47,74.87,412.59,73.81,410.23,73.78Z" style="fill:#BA68C8"></path><g style="opacity:0.30000000000000004"><path d="M224.11,71.36a7.78,7.78,0,0,1,5.73,2.24,4.13,4.13,0,0,1,1.06,3h-3.16c0-1.74-1.71-2.8-3.63-2.8s-3.62.91-3.62,2.51c0,.88.64,1.41,1.62,1.71,2.59.88,4.54.59,6.9,1.74a3.74,3.74,0,0,1,2.33,3.63,4.09,4.09,0,0,1-1.24,3.1c-1.47,1.47-3.86,2-6,2s-4.6-.62-6-2.12a4.52,4.52,0,0,1-1.24-3.25H220c0,2,2.07,3,4.1,3s4.08-.65,4.08-2.51c0-.91-.68-1.41-1.66-1.77-2.71-1-4.19-.47-6.87-1.79a3.85,3.85,0,0,1-2.36-3.66C217.3,72.89,221.13,71.36,224.11,71.36Z"></path><path d="M232.64,74.16V71.74h16v2.42h-6.49v13.9h-3V74.16Z"></path><path d="M249.78,79.92a8.69,8.69,0,1,1,8.68,8.58A8.31,8.31,0,0,1,249.78,79.92Zm8.68-6.14c-3.31,0-5.52,2.6-5.52,6.14s2.27,6.1,5.52,6.1,5.51-2.56,5.51-6.1S261.76,73.78,258.46,73.78Z"></path><path d="M278.79,82H273.5v6h-3V71.74h8.29c3.77,0,6.66,1.57,6.66,5.11v0C285.39,80.42,282.62,82,278.79,82Zm3.48-5.13c0-2.1-1.33-2.72-3.48-2.72H273.5v5.43h5.29C280.94,79.59,282.27,79,282.27,76.88Z"></path><path d="M300.94,71.36a7.78,7.78,0,0,1,5.73,2.24,4.18,4.18,0,0,1,1.06,3h-3.16c0-1.74-1.71-2.8-3.63-2.8s-3.63.91-3.63,2.51c0,.88.65,1.41,1.63,1.71,2.59.88,4.54.59,6.9,1.74a3.74,3.74,0,0,1,2.33,3.63,4.09,4.09,0,0,1-1.24,3.1c-1.47,1.47-3.86,2-6,2s-4.6-.62-6-2.12a4.55,4.55,0,0,1-1.23-3.25h3.15c0,2,2.07,3,4.1,3s4.07-.65,4.07-2.51c0-.91-.67-1.41-1.65-1.77-2.71-1-4.19-.47-6.87-1.79a3.85,3.85,0,0,1-2.36-3.66C294.13,72.89,298,71.36,300.94,71.36Z"></path><path d="M328.59,74.69l-5.76,13.37H320.3l-6-13.37.18,7.08v6.29h-3V71.74h4.54l5.52,13,5.37-13h4.51V88.06h-3V81.77Z"></path><path d="M334.76,79.92a8.69,8.69,0,1,1,8.67,8.58A8.3,8.3,0,0,1,334.76,79.92Zm8.67-6.14c-3.31,0-5.52,2.6-5.52,6.14s2.27,6.1,5.52,6.1,5.52-2.56,5.52-6.1S346.73,73.78,343.43,73.78Z"></path><path d="M371.93,88.06h-3.72l-6-8.23-3.71,3.36v4.87h-3V71.74h3v7.88l8.76-7.88h3.86l-6.72,6.11Z"></path><path d="M377.51,71.74V88.06h-3V71.74Z"></path><path d="M385.35,71.74l9.83,12.69V71.74h3V88.06h-3.48l-9.83-12.69V88.06h-3V71.74Z"></path><path d="M410.23,73.78c-3.4,0-5.55,2.57-5.55,6.14s2.39,6.1,5.63,6.1a5.18,5.18,0,0,0,5.37-4.3h-5.81V79.44h8.29v8.62h-2.24c-.06-.38-.12-1.09-.18-2.07l-.14.18a6.38,6.38,0,0,1-5.37,2.33,8.6,8.6,0,1,1-.06-17.2A8.19,8.19,0,0,1,415.48,73a6.5,6.5,0,0,1,2.48,3.9h-3C414.47,74.87,412.59,73.81,410.23,73.78Z"></path></g><path d="M231.68,37.73V65.2h-2.05l-8.71-22.27V65.2h-2V37.73h2l8.68,22.19V37.73Z" style="fill:#455a64"></path><path d="M238.05,59V43.92c0-4.06,2.57-6.77,6.41-6.77s6.41,2.71,6.41,6.77V59c0,4.06-2.56,6.77-6.41,6.77S238.05,63.07,238.05,59Zm10.73,0V43.92c0-2.82-1.72-4.68-4.32-4.68s-4.32,1.86-4.32,4.68V59c0,2.82,1.72,4.69,4.32,4.69S248.78,61.83,248.78,59Z" style="fill:#455a64"></path><path d="M258.26,42.68h-4v-5h13v5h-4V65.2h-4.95Z" style="fill:#BA68C8"></path><path d="M283.05,65.2H278l-.62-4.29h-4.25l-.66,4.29h-5.05l5.2-27.47H278ZM276.65,56l-1.36-9.34L273.86,56Z" style="fill:#BA68C8"></path><path d="M300.19,56v2.38a6.37,6.37,0,0,1-6.78,6.78h-7.14V37.73h6.78a6.36,6.36,0,0,1,6.77,6.78v2.93a7.28,7.28,0,0,1-1.13,4.06A7.06,7.06,0,0,1,300.19,56Zm-9-6.77h1.83a1.69,1.69,0,0,0,1.83-1.83V44.51a1.69,1.69,0,0,0-1.83-1.83h-1.83Zm4,6.77a1.69,1.69,0,0,0-1.83-1.83h-2.19v6h2.19a1.69,1.69,0,0,0,1.83-1.83Z" style="fill:#BA68C8"></path><path d="M318.2,65.2h-5.05l-.63-4.29h-4.24l-.66,4.29h-5.06l5.2-27.47h5.35ZM311.79,56l-1.35-9.34L309,56Z" style="fill:#BA68C8"></path><path d="M333.83,59a6.77,6.77,0,0,1-13.54,0V43.92a6.77,6.77,0,0,1,13.54,0v1.47h-4.94V43.92a1.83,1.83,0,0,0-3.66,0V59a1.83,1.83,0,0,0,3.66,0V57.54h4.94Z" style="fill:#BA68C8"></path><path d="M350.89,59a6.77,6.77,0,0,1-13.54,0V43.92a6.77,6.77,0,0,1,13.54,0v1.47H346V43.92a1.83,1.83,0,1,0-3.66,0V59A1.83,1.83,0,1,0,346,59V57.54h4.94Z" style="fill:#BA68C8"></path><path d="M354.41,59V43.92a6.78,6.78,0,0,1,13.55,0V59a6.78,6.78,0,0,1-13.55,0Zm8.6,0V43.92a1.83,1.83,0,1,0-3.66,0V59A1.83,1.83,0,0,0,363,59Z" style="fill:#BA68C8"></path><path d="M373.63,37.73h6c3.85,0,6.41,2.71,6.41,6.78V58.42c0,4.07-2.56,6.78-6.41,6.78h-6Zm6,25.38c2.6,0,4.32-1.87,4.32-4.69V44.51c0-2.82-1.72-4.69-4.32-4.69h-4V63.11Z" style="fill:#455a64"></path><path d="M404.6,65.2h-2.16l-1.31-5.86h-7.62l-1.32,5.86H390l6.19-27.47h2.2Zm-3.91-8-3.37-15.56L394,57.25Z" style="fill:#455a64"></path><path d="M421.41,37.73l-7,12.86V65.2h-2.08V50.59l-7-12.86h2.16l5.86,10.81,5.86-10.81Z" style="fill:#455a64"></path></g></g></svg>